<svg width="40" height="40" viewBox="0 0 40 40" fill="none" xmlns="http://www.w3.org/2000/svg">
<g clip-path="url(#clip0_0_483)">
<path d="M19.9893 2.99988C10.6 3.00602 2.99387 10.6195 3 20.0106C3.00575 29.3987 10.6177 37.006 20.0107 36.9999C29.4 36.9941 37.0061 29.3815 37 19.9891C36.9939 10.5999 29.3816 2.99375 19.9893 2.99988ZM12.3367 17.733C12.1876 17.8775 11.9921 17.95 11.7965 17.95C11.601 17.95 11.4055 17.8779 11.2564 17.7338C10.9577 17.4455 10.9573 16.977 11.2556 16.6883L12.1792 15.7935L11.2545 14.8998C10.9558 14.6115 10.9554 14.1431 11.2537 13.8544C11.552 13.5653 12.0354 13.5649 12.334 13.8536L13.2587 14.7473L14.1823 13.8525C14.4806 13.5634 14.964 13.563 15.2626 13.8517C15.5613 14.14 15.5617 14.6085 15.2634 14.8972L14.3399 15.792L15.2646 16.6856C15.5632 16.9739 15.5636 17.4424 15.2653 17.7311C15.1162 17.8756 14.9207 17.9481 14.7255 17.9481C14.53 17.9481 14.3345 17.876 14.1854 17.7318L13.2607 16.8382L12.3371 17.733H12.3367ZM25.2354 29.0077L14.7761 29.0142C13.8468 29.0149 13.174 28.1317 13.4159 27.2342C13.7755 25.8985 14.5312 24.7254 15.549 23.8501C16.7402 22.8119 18.3001 22.1878 20.0015 22.1867C21.703 22.1855 23.2637 22.8077 24.4564 23.8444C25.4754 24.7185 26.2321 25.8904 26.5937 27.2257C26.8367 28.1228 26.1651 29.0069 25.2358 29.0073L25.2354 29.0077ZM28.741 17.7226C28.5918 17.8672 28.3963 17.9396 28.2012 17.9396C28.0056 17.9396 27.8101 17.8675 27.661 17.7234L26.7363 16.8298L25.8127 17.7246C25.6636 17.8691 25.4681 17.9415 25.2729 17.9415C25.0774 17.9415 24.8819 17.8695 24.7328 17.7253C24.4341 17.437 24.4337 16.9685 24.732 16.6799L25.6556 15.7851L24.7309 14.8914C24.4322 14.6031 24.4318 14.1346 24.7301 13.8459C25.0284 13.5569 25.5118 13.5565 25.8104 13.8452L26.7351 14.7388L27.6587 13.844C27.957 13.555 28.4404 13.5546 28.739 13.8433C29.0377 14.1316 29.0381 14.6 28.7398 14.8887L27.8163 15.7835L28.741 16.6772C29.0396 16.9655 29.04 17.434 28.7417 17.7226H28.741Z" fill="#E31837"/>
</g>
<defs>
<clipPath id="clip0_0_483">
<rect width="34" height="34" fill="white" transform="translate(3 3)"/>
</clipPath>
</defs>
</svg>
