<svg width="40" height="38" viewBox="0 0 40 38" fill="none" xmlns="http://www.w3.org/2000/svg">
<path d="M3 5.16202C3 4.11986 3.91334 3.27502 5.04 3.27502H34.96C36.0867 3.27502 37 4.11986 37 5.16202V32.838C37 33.8802 36.0867 34.725 34.96 34.725H5.04C3.91334 34.725 3 33.8802 3 32.838V5.16202Z" fill="white"/>
<g clip-path="url(#clip0_0_480)">
<path d="M24.1783 30.3219H9.96132C8.74554 30.3219 7.75977 29.4093 7.75977 28.2837V15.1212C7.75977 13.9955 8.74554 13.0829 9.96132 13.0829H24.1783C25.3941 13.0829 26.3799 13.9955 26.3799 15.1212V28.2837C26.3799 29.4093 25.3941 30.3219 24.1783 30.3219ZM9.96132 15.111V28.2837H24.1783V15.1212H9.96132V15.111Z" fill="black"/>
<path d="M29.9613 7.67798H15.9086C14.649 7.67798 13.6304 8.62106 13.6304 9.78723V12.1196H15.821V9.78723C15.821 9.78723 15.8648 9.7061 15.9086 9.7061H29.9723C29.9723 9.7061 30.0599 9.74666 30.0599 9.78723V22.8078C30.0599 22.8078 30.0161 22.8889 29.9723 22.8889H27.4531V24.917H29.9723C31.2319 24.917 32.2505 23.974 32.2505 22.8078V9.78723C32.2505 8.62106 31.2319 7.67798 29.9723 7.67798H29.9613Z" fill="black"/>
</g>
<defs>
<clipPath id="clip0_0_480">
<rect width="24.48" height="22.644" fill="white" transform="translate(7.75977 7.67798)"/>
</clipPath>
</defs>
</svg>
