<svg width="40" height="40" viewBox="0 0 40 40" fill="none" xmlns="http://www.w3.org/2000/svg">
<path d="M3 5.04C3 3.91334 3.91334 3 5.04 3H34.96C36.0867 3 37 3.91334 37 5.04V34.96C37 36.0867 36.0867 37 34.96 37H5.04C3.91334 37 3 36.0867 3 34.96V5.04Z" fill="black"/>
<g clip-path="url(#clip0_0_458)">
<path d="M24.1783 32.24H9.96132C8.74554 32.24 7.75977 31.2533 7.75977 30.0364V15.8067C7.75977 14.5898 8.74554 13.6031 9.96132 13.6031H24.1783C25.3941 13.6031 26.3799 14.5898 26.3799 15.8067V30.0364C26.3799 31.2533 25.3941 32.24 24.1783 32.24ZM9.96132 15.7957V30.0364H24.1783V15.8067H9.96132V15.7957Z" fill="white"/>
<path d="M29.9613 7.76001H15.9086C14.649 7.76001 13.6304 8.77955 13.6304 10.0403V12.5617H15.821V10.0403C15.821 10.0403 15.8648 9.95258 15.9086 9.95258H29.9723C29.9723 9.95258 30.0599 9.99643 30.0599 10.0403V24.1166C30.0599 24.1166 30.0161 24.2043 29.9723 24.2043H27.4531V26.3968H29.9723C31.2319 26.3968 32.2505 25.3773 32.2505 24.1166V10.0403C32.2505 8.77955 31.2319 7.76001 29.9723 7.76001H29.9613Z" fill="white"/>
</g>
<defs>
<clipPath id="clip0_0_458">
<rect width="24.48" height="24.48" fill="white" transform="translate(7.75977 7.76001)"/>
</clipPath>
</defs>
</svg>
