<svg width="40" height="40" viewBox="0 0 40 40" fill="none" xmlns="http://www.w3.org/2000/svg">
<g clip-path="url(#clip0_0_650)">
<path d="M2.99999 20.7364L3.13177 20.4465C3.39534 19.8139 4.08061 19.4186 4.73952 19.524C5.47751 19.6294 6.00464 20.1566 6.08371 20.8682C6.08371 21.0527 6.08371 21.2108 6.08371 21.3953C6.08371 25.0852 6.08371 28.7488 6.08371 32.4387C6.08371 32.5705 6.08371 32.7286 6.08371 32.8868H33.9163V32.4651C33.9163 28.7488 33.9163 25.0589 33.9163 21.3426C33.9163 21.079 33.9163 20.8155 33.9953 20.5783C34.1798 19.893 34.8651 19.4186 35.5504 19.4713C36.3411 19.524 36.9209 20.1038 37 20.8682C37 20.9736 37 21.079 37 21.2108C37 25.5597 37 29.9348 37 34.2837C37 35.1271 36.6046 35.7333 35.8667 35.9178C35.6558 35.9705 35.4186 35.9969 35.2077 35.9969C25.0605 35.9969 14.9132 35.9969 4.76588 35.9969C3.86976 35.9969 3.28991 35.6015 2.97363 34.7581V20.7364H2.99999Z" fill="white"/>
<path d="M21.6606 24.5055C21.6606 24.5055 21.7661 24.2946 21.8715 24.1892C23.2684 22.7923 24.6389 21.3954 26.0622 19.9985C26.8002 19.2605 27.8017 19.3132 28.4079 20.0512C28.856 20.6047 28.8824 21.3954 28.4079 21.9489C28.3025 22.0807 28.1971 22.1861 28.0917 22.2915C25.7986 24.5845 23.5056 26.8776 21.2126 29.1706C20.4219 29.9876 19.5521 29.9876 18.7351 29.1706C16.4157 26.8512 14.0963 24.5318 11.7769 22.2124C11.0653 21.5008 11.0126 20.631 11.5924 19.9458C12.1459 19.3396 13.0684 19.2605 13.701 19.7876C13.8327 19.8931 13.9382 19.9985 14.0436 20.1039C15.3878 21.4481 16.732 22.7923 18.0762 24.1365C18.1552 24.2155 18.2606 24.2946 18.4188 24.4528V24.0047C18.4188 17.9163 18.4188 11.8016 18.4188 5.71322C18.4188 5.13337 18.5506 4.6326 19.025 4.2636C19.4994 3.89461 20.0529 3.8419 20.58 4.07911C21.1335 4.31632 21.4498 4.76438 21.4762 5.37058C21.4762 5.52872 21.4762 5.68686 21.4762 5.845C21.4762 11.8807 21.4762 17.9427 21.4762 23.9783V24.3737L21.6079 24.4528L21.6606 24.5055Z" fill="white"/>
</g>
<defs>
<clipPath id="clip0_0_650">
<rect width="34" height="32.0233" fill="white" transform="translate(3 4)"/>
</clipPath>
</defs>
</svg>
