<svg width="40" height="40" viewBox="0 0 40 40" fill="none" xmlns="http://www.w3.org/2000/svg">
<g clip-path="url(#clip0_0_664)">
<path d="M2.99999 20.7365L3.13177 20.4465C3.39534 19.814 4.08061 19.4186 4.73952 19.5241C5.47751 19.6295 6.00464 20.1566 6.08371 20.8682C6.08371 21.0527 6.08371 21.2109 6.08371 21.3954C6.08371 25.0853 6.08371 28.7489 6.08371 32.4388C6.08371 32.5706 6.08371 32.7287 6.08371 32.8868H33.9163V32.4651C33.9163 28.7489 33.9163 25.0589 33.9163 21.3427C33.9163 21.0791 33.9163 20.8155 33.9953 20.5783C34.1798 19.893 34.8651 19.4186 35.5504 19.4713C36.3411 19.5241 36.9209 20.1039 37 20.8682C37 20.9737 37 21.0791 37 21.2109C37 25.5597 37 29.9349 37 34.2837C37 35.1272 36.6046 35.7334 35.8667 35.9179C35.6558 35.9706 35.4186 35.9969 35.2077 35.9969C25.0605 35.9969 14.9132 35.9969 4.76588 35.9969C3.86976 35.9969 3.28991 35.6016 2.97363 34.7582V20.7365H2.99999Z" fill="#16D992"/>
<path d="M21.6606 24.5054C21.6606 24.5054 21.7661 24.2945 21.8715 24.1891C23.2684 22.7922 24.6389 21.3953 26.0622 19.9984C26.8002 19.2604 27.8017 19.3132 28.4079 20.0511C28.856 20.6046 28.8824 21.3953 28.4079 21.9488C28.3025 22.0806 28.1971 22.186 28.0917 22.2914C25.7986 24.5845 23.5056 26.8775 21.2126 29.1705C20.4219 29.9876 19.5521 29.9876 18.7351 29.1705C16.4157 26.8511 14.0963 24.5318 11.7769 22.2124C11.0653 21.5008 11.0126 20.631 11.5924 19.9457C12.1459 19.3395 13.0684 19.2604 13.701 19.7876C13.8327 19.893 13.9382 19.9984 14.0436 20.1039C15.3878 21.448 16.732 22.7922 18.0762 24.1364C18.1552 24.2155 18.2606 24.2945 18.4188 24.4527V24.0046C18.4188 17.9163 18.4188 11.8015 18.4188 5.71315C18.4188 5.13331 18.5506 4.63253 19.025 4.26354C19.4994 3.89455 20.0529 3.84184 20.58 4.07905C21.1335 4.31626 21.4498 4.76432 21.4762 5.37052C21.4762 5.52866 21.4762 5.6868 21.4762 5.84494C21.4762 11.8806 21.4762 17.9426 21.4762 23.9783V24.3736L21.6079 24.4527L21.6606 24.5054Z" fill="#16D992"/>
</g>
<defs>
<clipPath id="clip0_0_664">
<rect width="34" height="32.0233" fill="white" transform="translate(3 4)"/>
</clipPath>
</defs>
</svg>
