<svg width="40" height="40" viewBox="0 0 40 40" fill="none" xmlns="http://www.w3.org/2000/svg">
<g opacity="0.4">
<path opacity="0.4" d="M20.3505 3L6 11.4997V28.5003L20.3518 37L34.7023 28.5003L34.7084 11.4997L20.3505 3ZM32.4228 25.8001L29.0406 23.7969C29.015 23.947 28.954 24.0884 28.8626 24.2111C28.743 24.3687 28.5808 24.4826 28.393 24.5376C28.2027 24.5939 28.0003 24.6227 27.7917 24.6227C27.4307 24.6227 27.0416 24.5339 26.6781 24.3725C26.7086 24.4901 26.7379 24.6064 26.7672 24.7216C26.8099 24.8905 26.8526 25.0619 26.8977 25.2283L31.2824 27.8246L21.4921 33.6241V28.2388C21.3812 28.434 21.2738 28.6317 21.1824 28.8219C20.8079 29.6077 20.6372 30.4598 20.6872 31.2831V31.3144C20.6957 31.5483 20.6176 31.7748 20.4701 31.9525C20.3213 32.1302 20.1151 32.244 19.8895 32.2728H19.8773C19.8419 32.2791 19.8054 32.2816 19.7688 32.2816C19.5626 32.2816 19.3687 32.209 19.2138 32.0864V33.6241L9.42115 27.8259L11.5836 26.5459C11.7775 26.1592 12.0007 25.8064 12.2508 25.4923C12.5349 25.1357 12.8557 24.8254 13.2045 24.5714L13.2411 24.5439C13.5265 24.3349 13.8046 24.1335 14.0998 23.9383C13.7936 23.8932 13.5034 23.8545 13.2411 23.8545C13.0179 23.8545 12.8447 23.8832 12.713 23.9408C12.5972 23.9921 12.474 24.0184 12.3471 24.0184C12.2032 24.0184 12.0581 23.9821 11.9288 23.9145C11.8519 23.8745 11.7812 23.8232 11.719 23.7631L8.28077 25.7989V14.2011L11.6665 16.2069C11.6909 16.058 11.7507 15.9166 11.8422 15.7952C11.9617 15.635 12.1239 15.5212 12.313 15.4649C12.5045 15.4073 12.7069 15.3785 12.9179 15.3785C13.2789 15.3785 13.668 15.4674 14.0327 15.6288C14.0022 15.5112 13.9729 15.3948 13.9449 15.2847V15.2784C13.9022 15.112 13.8595 14.9431 13.8144 14.7779L9.42237 12.1766L19.2114 6.37585V11.7725C19.3248 11.5735 19.4346 11.3721 19.5273 11.1781C19.9017 10.3923 20.0725 9.54149 20.0225 8.71692V8.68689H20.0212C20.0139 8.45041 20.092 8.22394 20.2408 8.04501C20.3896 7.86733 20.5969 7.75347 20.8238 7.72594H20.836C20.8713 7.71969 20.9067 7.71843 20.9421 7.71843C21.1458 7.71843 21.3372 7.7885 21.4909 7.90862V6.37585L31.2872 12.1754L29.126 13.4554C28.9321 13.842 28.7089 14.1949 28.4601 14.5089C28.1759 14.8668 27.8551 15.1771 27.5063 15.4311L27.4685 15.4586C27.1831 15.6676 26.905 15.869 26.6098 16.0642C26.916 16.1093 27.2063 16.1481 27.4685 16.1481C27.6917 16.1481 27.8649 16.1193 27.9966 16.0617C28.1125 16.0104 28.2357 15.9841 28.3613 15.9841C28.504 15.9841 28.6467 16.0192 28.776 16.0867C28.854 16.128 28.926 16.1793 28.9882 16.2394L32.4252 14.2036L32.4203 25.8014L32.4228 25.8001Z" fill="white"/>
</g>
<path d="M31.4997 20.5832C31.4948 20.5394 31.4582 20.5056 31.4143 20.5056H31.4058C31.2972 20.5131 31.1899 20.5156 31.0813 20.5156C30.2398 20.5156 29.386 20.3092 28.5932 19.9125C28.2993 19.7649 28.0078 19.5884 27.726 19.4183C27.4004 19.2206 27.0638 19.0166 26.7174 18.854C26.31 18.6625 25.9209 18.5512 25.5636 18.5224C25.5002 18.5174 25.4379 18.5149 25.377 18.5149C25.2879 18.5149 25.2013 18.5199 25.1172 18.5311C25.0428 18.5412 24.9708 18.5537 24.9001 18.5724C25.1818 18.1833 25.5892 18.0544 26.0392 17.9856C26.1795 17.9643 26.3246 17.9481 26.471 17.933C26.5076 17.9293 26.5454 17.9255 26.5832 17.9205C26.7991 17.8968 27.0186 17.8692 27.2272 17.8179C27.6516 17.7141 28.1944 17.4363 28.4456 16.9671V16.9633C28.4639 16.9283 28.4578 16.8845 28.4298 16.857C28.4225 16.8495 28.4151 16.8445 28.4066 16.8407C28.3944 16.8345 28.3798 16.8307 28.3664 16.8307C28.3542 16.8307 28.342 16.8332 28.3298 16.8382C28.1432 16.9208 27.9431 16.9646 27.7334 16.9834C27.648 16.9909 27.5614 16.9946 27.4723 16.9946C27.115 16.9946 26.7381 16.9383 26.3686 16.8833C26.2942 16.872 26.2198 16.8607 26.1454 16.8507C25.8221 16.8044 25.466 16.7531 25.1221 16.7531C24.7122 16.7531 24.3207 16.8257 24.0244 17.0634C24.3805 16.369 24.9098 16.0524 25.4221 15.7872C26.01 15.4844 26.4649 15.1515 26.993 14.7662L27.0308 14.7386C27.104 14.6848 27.1747 14.6285 27.2455 14.5697C27.454 14.3945 27.6468 14.1943 27.8236 13.9704C28.1639 13.5437 28.4469 13.0307 28.6688 12.4351C28.6871 12.3976 28.6749 12.3525 28.642 12.3275L28.6371 12.3237C28.6225 12.3125 28.6042 12.3075 28.5871 12.3075C28.5639 12.3075 28.5408 12.3175 28.5237 12.335L28.52 12.3387C27.8931 13.067 27.0638 13.6275 26.1222 13.9604C25.8124 14.0692 25.4843 14.1568 25.1672 14.2406C24.8013 14.337 24.4232 14.4371 24.067 14.5735C23.3694 14.8387 22.8645 15.2229 22.5876 15.6921C22.4973 15.0627 22.8669 14.5947 23.2572 14.1005C23.4157 13.899 23.5804 13.6913 23.7121 13.4711C23.9414 13.0895 24.1341 12.4989 23.9878 11.9871C23.9768 11.9484 23.9426 11.9208 23.9036 11.9196H23.9012C23.8634 11.9196 23.8304 11.9434 23.817 11.9784C23.5877 12.5702 23.0157 13.0082 22.4632 13.4311C22.4022 13.4774 22.3412 13.5249 22.2815 13.5712C22.0973 13.7139 21.8997 13.8678 21.7131 14.0342C21.6387 14.1005 21.5655 14.1693 21.4972 14.2394C21.2057 14.5372 20.9752 14.8738 20.9289 15.2591C20.7032 14.5109 20.8581 13.9041 21.0386 13.3447C21.246 12.7016 21.3387 12.1348 21.4472 11.4766L21.4533 11.4366C21.474 11.3115 21.4887 11.1851 21.4972 11.0562C21.5106 10.861 21.5106 10.6621 21.4972 10.4606C21.457 9.8688 21.2996 9.25444 21.0264 8.62381C21.0167 8.58752 20.985 8.5625 20.9484 8.5625C20.9447 8.5625 20.9423 8.5625 20.9386 8.5625H20.9276C20.8837 8.56876 20.8508 8.6088 20.852 8.65384V8.65885C20.9106 9.62856 20.7118 10.627 20.2751 11.5442C20.1312 11.8458 19.9592 12.1448 19.7934 12.4338C19.6006 12.7679 19.4018 13.1133 19.2433 13.4686C19.2335 13.4899 19.225 13.5099 19.2165 13.5299C19.1225 13.7489 19.0506 13.9616 19.0006 14.1668C18.8969 14.591 18.8847 14.9851 18.9689 15.333C18.4712 14.9538 18.409 14.3545 18.3444 13.7214C18.3176 13.4636 18.2907 13.1984 18.2322 12.9456C18.131 12.5102 17.8602 11.9534 17.4028 11.6956H17.4004C17.387 11.6869 17.3735 11.6843 17.3601 11.6843C17.337 11.6843 17.3138 11.6931 17.2967 11.7119C17.2699 11.7394 17.2626 11.7807 17.2772 11.8157C17.5236 12.4013 17.4211 13.1258 17.3211 13.8265C17.3101 13.9028 17.2991 13.9791 17.2894 14.0555C17.1906 14.7812 17.0698 15.6721 17.4967 16.2314C16.8198 15.866 16.5112 15.323 16.2539 14.7974C15.9587 14.1943 15.6343 13.7276 15.2599 13.1871L15.233 13.1483C14.7281 12.4201 13.9731 11.8545 12.9889 11.4679C12.9767 11.4616 12.9645 11.4591 12.9523 11.4591C12.9254 11.4591 12.8998 11.4716 12.884 11.4954L12.8803 11.5004C12.8547 11.5367 12.8596 11.5855 12.8913 11.6155L12.8949 11.6193C13.6048 12.2624 14.1512 13.1133 14.4756 14.0792C14.5817 14.397 14.6671 14.7336 14.7488 15.0589V15.0652C14.7757 15.1653 14.8013 15.2654 14.8269 15.3668C14.8988 15.6433 14.9769 15.9211 15.0733 16.1888C15.3318 16.9045 15.7063 17.4238 16.1636 17.7066C16.1002 17.7166 16.0392 17.7203 15.9782 17.7203C15.455 17.7203 15.0428 17.3787 14.611 17.0196C14.4146 16.857 14.2122 16.6881 13.9975 16.5529C13.7158 16.3753 13.3169 16.2188 12.923 16.2188C12.7974 16.2188 12.6717 16.2351 12.551 16.2714C12.5132 16.2827 12.4864 16.3177 12.4864 16.359C12.4864 16.399 12.5083 16.4341 12.5449 16.4478C12.9498 16.613 13.2804 16.9496 13.5841 17.3325C13.7024 17.4814 13.817 17.6378 13.9304 17.7942C13.9414 17.8092 13.9524 17.8242 13.9621 17.838C14.0073 17.9005 14.0524 17.9618 14.0975 18.0231C14.5281 18.6075 15.0562 19.3244 15.7429 19.4108C15.4831 19.4933 15.2416 19.5259 15.0135 19.5259C14.5988 19.5259 14.228 19.417 13.878 19.2982C13.2511 19.0854 12.6974 18.9903 12.057 18.879L12.0192 18.8727C11.8033 18.8352 11.5838 18.8164 11.3606 18.8164C10.6947 18.8164 9.99702 18.9816 9.27742 19.3107C9.2384 19.3219 9.214 19.3595 9.21888 19.4008V19.4108C9.22498 19.4546 9.26157 19.4883 9.30548 19.4883H9.31401C9.42134 19.4808 9.52989 19.4783 9.63844 19.4783C10.4812 19.4783 11.335 19.6848 12.1266 20.0814C12.4205 20.2291 12.712 20.4055 12.9937 20.5757C13.3194 20.7734 13.656 20.9773 14.0024 21.14C14.4098 21.3314 14.7976 21.4428 15.155 21.4716C15.2184 21.4766 15.2818 21.4803 15.344 21.4803C15.4318 21.4803 15.5184 21.4741 15.6026 21.4641C15.677 21.454 15.7502 21.4403 15.8209 21.4228C15.5392 21.8119 15.1318 21.9408 14.6805 22.0096C14.5403 22.0309 14.3963 22.0471 14.25 22.0621C14.2122 22.0659 14.1756 22.0697 14.1378 22.0747C13.9219 22.0984 13.7036 22.126 13.4938 22.1773C13.0694 22.2811 12.5266 22.5589 12.2754 23.0281V23.0319C12.2558 23.0681 12.2632 23.1107 12.2912 23.1382C12.2985 23.1457 12.3058 23.1507 12.3144 23.1545C12.3266 23.1607 12.3412 23.1645 12.3559 23.1645C12.368 23.1645 12.3802 23.162 12.3924 23.157C12.579 23.0744 12.7791 23.0306 12.9889 23.0118C13.0742 23.0043 13.162 23.0006 13.2499 23.0006C13.6072 23.0006 13.9841 23.0569 14.3537 23.1119C14.4281 23.1232 14.5025 23.1345 14.5769 23.1445C14.9001 23.1908 15.2574 23.2421 15.6026 23.2421C16.0112 23.2421 16.4027 23.1695 16.6978 22.9318C16.3417 23.6249 15.8136 23.9428 15.3001 24.2068C14.7122 24.5096 14.2573 24.8424 13.7292 25.2278L13.6926 25.2553C13.6194 25.3079 13.5487 25.3642 13.4792 25.423C13.2706 25.5994 13.0779 25.7984 12.8998 26.0223C12.5595 26.4503 12.2766 26.962 12.0546 27.5576C12.0363 27.5951 12.0485 27.6402 12.0814 27.6652L12.0851 27.6677C12.1009 27.679 12.1192 27.6852 12.1375 27.6852C12.1607 27.6852 12.1827 27.6765 12.201 27.659L12.2046 27.6552C12.8315 26.927 13.6609 26.3664 14.6025 26.0336C14.9123 25.9247 15.2404 25.8371 15.5575 25.7533C15.9234 25.657 16.3015 25.5569 16.6576 25.4205C17.3552 25.1552 17.8614 24.7711 18.1371 24.3019C18.2273 24.93 17.8577 25.3992 17.4675 25.8934C17.3089 26.0949 17.1442 26.3026 17.0125 26.5228C16.7832 26.9045 16.5917 27.495 16.7369 28.0068C16.7479 28.0456 16.782 28.0731 16.8223 28.0731H16.8235C16.8613 28.0731 16.8942 28.0493 16.9076 28.0131C17.1369 27.4212 17.7089 26.9833 18.2615 26.5604C18.3224 26.5141 18.3834 26.4665 18.4432 26.4202C18.6249 26.2788 18.8213 26.1274 19.0055 25.9635C19.0798 25.8972 19.153 25.8284 19.2213 25.7583C19.5165 25.458 19.7494 25.1202 19.7958 24.7323C20.0214 25.4805 19.8665 26.0874 19.686 26.6467C19.4787 27.2898 19.386 27.8579 19.2774 28.5148L19.2713 28.5536C19.2445 28.7137 19.2286 28.8777 19.2213 29.0416C19.2165 29.1654 19.2165 29.2906 19.2213 29.4169C19.2482 30.0426 19.4079 30.6957 19.6994 31.3664C19.7092 31.4027 19.7409 31.4277 19.7775 31.4277C19.7812 31.4277 19.7836 31.4277 19.7873 31.4277H19.797C19.8409 31.4214 19.8738 31.3814 19.8726 31.3364V31.3313C19.8141 30.3616 20.0129 29.3631 20.4507 28.446C20.5947 28.1444 20.7666 27.8454 20.9325 27.5563C21.1252 27.2223 21.3228 26.8769 21.4826 26.5216C21.4899 26.5053 21.496 26.4903 21.5033 26.474C21.596 26.2601 21.668 26.0511 21.7192 25.8484C21.829 25.4142 21.8424 25.0113 21.757 24.656C22.2546 25.0351 22.3168 25.6357 22.3815 26.2676C22.4083 26.5253 22.4351 26.7906 22.4937 27.0433C22.5949 27.4788 22.8657 28.0356 23.3231 28.2933H23.3267C23.3389 28.3021 23.3535 28.3046 23.367 28.3046C23.3901 28.3046 23.4133 28.2946 23.4316 28.2771C23.4584 28.2495 23.4658 28.2082 23.4499 28.1745C23.2035 27.5889 23.306 26.8644 23.406 26.1637C23.417 26.0874 23.4279 26.0111 23.4377 25.9347C23.5365 25.209 23.6572 24.3181 23.2304 23.7588C23.9073 24.1242 24.2158 24.6672 24.4744 25.1928C24.7696 25.7959 25.094 26.2626 25.4697 26.8044L25.4965 26.8431C26.0014 27.5714 26.7564 28.1369 27.7407 28.5236C27.7529 28.5298 27.7651 28.5323 27.7773 28.5323C27.8041 28.5323 27.8297 28.5198 27.8456 28.496L27.8492 28.491C27.8748 28.4547 27.87 28.4059 27.8382 28.3759L27.8334 28.3722C27.1235 27.729 26.5759 26.8794 26.2527 25.9122C26.1466 25.5944 26.0612 25.2578 25.9795 24.9325C25.9539 24.8311 25.9295 24.731 25.9026 24.6297C25.8307 24.3519 25.7526 24.0716 25.655 23.8039C25.3965 23.0882 25.022 22.5689 24.5647 22.2861C24.6281 22.2761 24.6891 22.2724 24.7501 22.2724C25.2733 22.2724 25.6843 22.6139 26.1161 22.9731C26.3124 23.1357 26.5149 23.3046 26.7296 23.4398C27.0113 23.6174 27.4101 23.7738 27.8041 23.7738C27.9297 23.7738 28.0553 23.7576 28.1761 23.7213C28.2139 23.71 28.2407 23.675 28.242 23.635C28.242 23.5949 28.22 23.5599 28.1846 23.5461C27.7821 23.3822 27.4541 23.0481 27.1516 22.669C27.032 22.5189 26.9174 22.3624 26.804 22.2073C26.7918 22.191 26.7796 22.1748 26.7686 22.1585C26.7235 22.0959 26.6771 22.0334 26.632 21.9721C26.2015 21.3877 25.6733 20.6708 24.9867 20.5844C25.2465 20.5018 25.488 20.4693 25.716 20.4693C26.1307 20.4693 26.5015 20.5782 26.8515 20.697C27.4784 20.9098 28.0322 21.0048 28.6725 21.1162L28.7103 21.1225C28.9262 21.16 29.1457 21.1788 29.3677 21.1788C30.0336 21.1788 30.7313 21.0136 31.4509 20.6845C31.4899 20.6733 31.5143 20.6357 31.5094 20.5944V20.5844L31.4997 20.5832ZM23.3804 23.3997C22.5291 24.2393 21.4106 24.6885 20.23 24.6635C19.0494 24.6397 17.9492 24.1455 17.1308 23.2721C16.3124 22.3987 15.8746 21.2513 15.899 20.0401C15.916 19.1718 16.1697 18.346 16.6247 17.639C16.6661 17.5664 16.7125 17.4926 16.7686 17.4213C16.7832 17.4013 16.8003 17.3838 16.8149 17.365C16.9479 17.1886 17.0955 17.0196 17.2552 16.862C18.1066 16.0224 19.225 15.5732 20.4056 15.5982C21.5863 15.622 22.6864 16.1162 23.5048 16.9896C24.3232 17.863 24.761 19.0104 24.7366 20.2216C24.7135 21.4328 24.2317 22.5614 23.3804 23.401V23.3997Z" fill="white"/>
<path d="M19.604 20.7295C19.6235 20.737 19.6418 20.7445 19.6601 20.7508C19.8162 20.8109 19.9406 20.8346 20.0284 20.8359C20.0724 20.8371 20.1077 20.8334 20.1346 20.8334C20.1602 20.8321 20.1772 20.8346 20.1821 20.8446C20.187 20.8547 20.1809 20.8697 20.1602 20.8922C20.1516 20.8997 20.1407 20.9097 20.1272 20.9185C20.1358 20.9185 20.1443 20.9197 20.1529 20.9197C20.2126 20.9235 20.2736 20.9272 20.3321 20.931C20.4517 20.9372 20.57 20.9422 20.6858 20.9472C20.8017 20.9522 20.9151 20.9548 21.0261 20.956C21.2469 20.956 21.4579 20.9447 21.653 20.9072C21.7506 20.8884 21.8445 20.8634 21.9336 20.8321C22.0226 20.8008 22.108 20.7621 22.1885 20.7195C22.3495 20.6332 22.4934 20.5281 22.6202 20.4167C22.6373 20.4017 22.6519 20.3879 22.669 20.3729C22.5714 20.423 22.4178 20.4843 22.2177 20.5456C22.0336 20.6007 21.8104 20.6557 21.5591 20.6995C21.3079 20.7433 21.0286 20.7746 20.7346 20.7871C20.4407 20.7996 20.1602 20.7908 19.9065 20.7671C19.8004 20.7583 19.7004 20.7445 19.604 20.732V20.7295Z" fill="white"/>
<path d="M21.2987 21.337C21.2987 21.337 21.3084 21.3332 21.3133 21.3319C21.2865 21.3344 21.2609 21.3357 21.234 21.337L21.2157 21.342C21.1828 21.3509 21.1474 21.3597 21.1108 21.3686C21.1328 21.366 21.1535 21.3648 21.173 21.3622C21.2243 21.3559 21.2657 21.3471 21.2987 21.337Z" fill="white"/>
<path d="M18.6961 19.6868C18.6119 19.6756 18.5265 19.6606 18.4399 19.6443C18.5046 19.6756 18.5704 19.7081 18.64 19.7394C18.6827 19.7594 18.7266 19.7794 18.7717 19.7995C18.7985 19.797 18.8266 19.792 18.8522 19.7907C18.9559 19.7807 19.0547 19.7769 19.151 19.7694L19.2961 19.7594C19.3437 19.7557 19.3925 19.7519 19.4401 19.7482C19.4559 19.7469 19.4706 19.7457 19.4864 19.7444L19.4815 19.7419C19.3181 19.7394 19.1486 19.7331 18.9754 19.7181C18.818 19.7457 18.7241 19.7482 18.7156 19.7219C18.7131 19.7144 18.718 19.7044 18.729 19.6918C18.718 19.6906 18.707 19.6893 18.6973 19.6881L18.6961 19.6868Z" fill="white"/>
<path d="M20.3797 17.8723C20.3505 17.8647 20.3212 17.8572 20.2919 17.8497C20.2651 17.861 20.237 17.871 20.209 17.8823C20.2822 17.9373 20.3578 17.9949 20.4346 18.055C20.4724 18.0437 20.509 18.0324 20.5456 18.0224L20.3785 17.8723H20.3797Z" fill="white"/>
<path d="M20.7721 19.9242C20.8087 19.9029 20.849 19.8841 20.8892 19.8629C20.9014 19.8566 20.916 19.8503 20.9282 19.8441C20.9209 19.8416 20.9148 19.8378 20.9075 19.8353C20.8233 19.8441 20.7441 19.8516 20.6697 19.8579L20.6562 19.8604C20.6562 19.8604 20.666 19.8691 20.6697 19.8729C20.6989 19.9017 20.7209 19.9267 20.7355 19.9467C20.7477 19.9392 20.7599 19.9329 20.7733 19.9254L20.7721 19.9242Z" fill="white"/>
<path d="M18.9245 21.2161C19.0208 21.2499 19.1257 21.2787 19.2355 21.3037L19.227 21.3012C19.155 21.28 19.0855 21.2612 19.0221 21.2387C18.9903 21.2274 18.9599 21.2186 18.9306 21.2074C18.9037 21.1974 18.8781 21.1873 18.8525 21.1786C18.8464 21.1798 18.8391 21.1811 18.833 21.1823C18.8623 21.1936 18.8916 21.2049 18.9233 21.2149L18.9245 21.2161Z" fill="white"/>
<path d="M18.8092 21.1734C18.8166 21.1734 18.8241 21.1704 18.8316 21.1704C18.8226 21.1704 18.8136 21.1719 18.8047 21.1719H18.8092V21.1734Z" fill="white"/>
<path d="M19.4554 20.3951C19.4676 20.3951 19.4786 20.3951 19.4908 20.3963C19.4225 20.3738 19.3554 20.35 19.2895 20.3262C19.2347 20.3262 19.1786 20.3262 19.1237 20.3262C19.0798 20.3262 19.0371 20.325 18.9932 20.3237C19.0066 20.3362 19.0212 20.3488 19.0346 20.3613C19.1712 20.375 19.3115 20.3876 19.4554 20.3963V20.3951Z" fill="white"/>
<path d="M20.7545 21.3957C20.7752 21.3957 20.7972 21.3957 20.8191 21.3957H20.846C20.846 21.3957 20.8582 21.3944 20.8631 21.3931C20.9521 21.378 21.0362 21.3616 21.1131 21.3439C21.0228 21.3477 20.9314 21.3489 20.8399 21.3489C20.8277 21.3515 20.8155 21.354 20.7996 21.3565C20.7472 21.3653 20.6764 21.3767 20.5923 21.3868C20.6057 21.3868 20.6179 21.3894 20.6313 21.3906C20.6716 21.3919 20.7118 21.3957 20.7545 21.3957Z" fill="white"/>
<path d="M23.2208 18.8802C23.1037 18.8539 22.9329 18.7938 22.7305 18.6987C22.728 18.7012 22.7268 18.7037 22.7256 18.7075C22.7488 18.7263 22.7756 18.7438 22.8036 18.76C22.8293 18.7751 22.8561 18.7863 22.8817 18.7988C22.9354 18.8038 22.9659 18.8138 22.9683 18.8301C22.9683 18.8326 22.9683 18.8339 22.9683 18.8364C23.0512 18.8689 23.1317 18.8914 23.2074 18.9064C23.2415 18.9127 23.2744 18.9177 23.3061 18.9227C23.3037 18.9152 23.2988 18.9064 23.2952 18.8989L23.2208 18.8827V18.8802Z" fill="white"/>
<path d="M19.412 19.1512L19.3813 19.1626C19.412 19.1852 19.4413 19.2065 19.472 19.2291C19.4854 19.2316 19.5001 19.2342 19.5136 19.2354C19.4805 19.2078 19.4462 19.1801 19.412 19.1512Z" fill="white"/>
<path d="M19.4373 18.1804C19.4081 18.1917 19.38 18.2017 19.3508 18.213C19.3203 18.2242 19.2898 18.2355 19.2593 18.248C19.369 18.2705 19.4898 18.2993 19.6166 18.3293L19.6301 18.3331C19.6569 18.3231 19.6825 18.3131 19.7093 18.3018C19.7276 18.2943 19.7471 18.288 19.7654 18.2818C19.6642 18.2505 19.5691 18.2217 19.4837 18.1954C19.4666 18.1904 19.452 18.1854 19.4361 18.1804H19.4373Z" fill="white"/>
<path d="M19.5405 16.6421C19.5246 16.6496 19.5088 16.6571 19.4917 16.6646C19.4734 16.6734 19.4539 16.6821 19.4331 16.6909C19.4124 16.6997 19.3917 16.7084 19.3697 16.7184C19.3258 16.7359 19.2795 16.7572 19.2294 16.776C19.2136 16.7823 19.1965 16.7898 19.1807 16.796C19.1929 16.7923 19.2063 16.7885 19.2185 16.786C19.3795 16.7435 19.5258 16.7109 19.649 16.6896C19.66 16.6884 19.6697 16.6859 19.6795 16.6846C19.6661 16.6809 19.6527 16.6771 19.6393 16.6734C19.6039 16.6621 19.571 16.6521 19.5392 16.6421H19.5405Z" fill="white"/>
<path d="M21.3696 18.2429C21.416 18.2354 21.4611 18.2279 21.5038 18.2216C21.5331 18.2166 21.5611 18.2141 21.5892 18.2103C21.4514 18.1741 21.3062 18.1328 21.1562 18.0902C21.1391 18.0977 21.122 18.104 21.105 18.1115L21.0928 18.1165C21.1367 18.1478 21.1818 18.1791 21.2269 18.2116C21.2489 18.2279 21.2708 18.2429 21.2928 18.2579C21.3184 18.2529 21.3452 18.2479 21.3696 18.2441V18.2429Z" fill="white"/>
<path d="M19.0913 18.8748C19.068 18.8836 19.0447 18.8924 19.0215 18.8999C19.0582 18.9263 19.0949 18.9527 19.1317 18.9791C19.1488 18.9703 19.1647 18.9627 19.1819 18.9539C19.1513 18.9276 19.1207 18.8999 19.09 18.8735L19.0913 18.8748Z" fill="white"/>
<path d="M18.8374 21.1496H18.8474C18.8374 21.1467 18.8274 21.1453 18.8188 21.1425C18.826 21.1453 18.8317 21.1467 18.8388 21.1496H18.8374Z" fill="white"/>
<path d="M22.8995 20.1423C22.8763 20.1498 22.8532 20.1561 22.8312 20.1624C22.6922 20.1999 22.5665 20.2212 22.4604 20.2324C22.4141 20.2374 22.3738 20.2399 22.3348 20.2412C22.3275 20.245 22.3202 20.2475 22.3128 20.2512C22.286 20.2637 22.2604 20.275 22.2336 20.2875C22.2067 20.2988 22.1787 20.31 22.1518 20.3213C22.1482 20.3225 22.1433 20.325 22.1396 20.3263C22.1506 20.325 22.164 20.3225 22.175 20.3213C22.5129 20.2712 22.7348 20.2387 22.7824 20.2662C22.8239 20.2249 22.8629 20.1836 22.9007 20.1423H22.8995Z" fill="white"/>
<path d="M22.1759 17.5094C22.1015 17.4756 22.0258 17.4394 21.9466 17.4031C21.9222 17.3918 21.8966 17.3806 21.8722 17.3705C21.8649 17.3705 21.8575 17.3705 21.8502 17.3693C21.8197 17.3668 21.788 17.3668 21.7563 17.3655L21.7075 17.363H21.7002C21.7661 17.3956 21.8319 17.4294 21.899 17.4644C21.9246 17.4782 21.9502 17.4919 21.9758 17.5057C21.9783 17.5057 21.9807 17.5057 21.9832 17.5082C22.1722 17.5595 22.4259 17.6546 22.6942 17.781C22.7137 17.7897 22.732 17.7997 22.7515 17.8085C22.643 17.7422 22.5222 17.6771 22.3881 17.612C22.3198 17.5783 22.249 17.5445 22.1746 17.5107L22.1759 17.5094Z" fill="white"/>
<path d="M19.9848 19.968C19.8592 19.9857 19.7323 20.0009 19.603 20.016C19.7372 20.0148 19.8714 20.0122 20.0067 20.0084C20.0323 20.0084 20.0567 20.0059 20.0824 20.0059C20.0519 19.9946 20.0214 19.9832 19.9909 19.9705L19.9848 19.968Z" fill="white"/>
<path d="M20.4888 21.3749C20.5986 21.3661 20.6888 21.356 20.7583 21.3471C20.5888 21.3459 20.4168 21.3395 20.2437 21.3307C20.2668 21.337 20.2912 21.3408 20.3168 21.3471C20.3461 21.3534 20.379 21.3585 20.412 21.3648C20.4364 21.3699 20.462 21.3724 20.4888 21.3762V21.3749Z" fill="white"/>
<path d="M21.7491 21.4135C21.7401 21.415 21.7311 21.4165 21.7222 21.418C21.7237 21.418 21.7266 21.4195 21.7281 21.421L21.7476 21.4135H21.7491Z" fill="white"/>
<path d="M22.0248 21.3011C22.1492 21.2498 22.2822 21.1922 22.42 21.1284C22.4139 21.1284 22.409 21.1297 22.4029 21.1309L22.3761 21.1447C22.359 21.1534 22.3407 21.1622 22.3237 21.171C22.3151 21.1747 22.3054 21.1797 22.2968 21.1835L22.2688 21.1947L22.1517 21.2435C22.0053 21.2998 21.8419 21.3499 21.6675 21.3887C21.6699 21.3912 21.6736 21.3924 21.6772 21.3962C21.7675 21.3787 21.8626 21.3574 21.959 21.3299C21.9809 21.3211 22.0029 21.3124 22.0261 21.3023L22.0248 21.3011Z" fill="white"/>
<path d="M21.3667 21.4394L21.3948 21.4368C21.4033 21.4368 21.4106 21.4368 21.4191 21.4343L21.4448 21.4305L21.5484 21.4166C21.5875 21.4103 21.6277 21.404 21.6692 21.3952C21.6667 21.3926 21.6631 21.3901 21.6619 21.3876C21.6448 21.3914 21.6289 21.3952 21.6131 21.3989C21.5301 21.4154 21.4484 21.4267 21.3691 21.4356H21.3679L21.3667 21.4394Z" fill="white"/>
<path d="M21.5014 21.3136C21.4753 21.3161 21.4504 21.3199 21.4243 21.3225C21.4243 21.325 21.4243 21.3276 21.4243 21.3301C21.4355 21.3276 21.4467 21.3263 21.4579 21.3237C21.4728 21.3212 21.4865 21.3174 21.5002 21.3136H21.5014Z" fill="white"/>
<path d="M21.3992 21.4012C21.4675 21.3924 21.537 21.3824 21.6077 21.3687C21.8017 21.3299 21.9809 21.2748 22.1419 21.2148C22.1822 21.1985 22.22 21.1835 22.2578 21.1672L22.2859 21.1559C22.2956 21.1522 22.3042 21.1472 22.3127 21.1434L22.3225 21.1384C22.3042 21.1397 22.2871 21.1409 22.2712 21.1409C22.2615 21.1409 22.2529 21.1409 22.2444 21.1409C22.1115 21.1897 21.959 21.2398 21.7858 21.2848C21.687 21.3098 21.5809 21.3324 21.4711 21.3524H21.4675C21.4675 21.3524 21.4565 21.3549 21.4504 21.3561C21.4394 21.3586 21.4297 21.3599 21.4187 21.3624C21.4138 21.3737 21.4065 21.3862 21.3979 21.3999L21.3992 21.4012Z" fill="white"/>
<path d="M24.2631 19.4695C24.2681 19.462 24.2718 19.4532 24.2755 19.447C24.2817 19.4357 24.2866 19.427 24.2904 19.4182C24.2904 19.412 24.2928 19.4057 24.2928 19.3994L24.2953 19.3744C24.2953 19.3644 24.2978 19.3569 24.2978 19.3494C24.2941 19.3269 24.2891 19.3056 24.2842 19.2831C24.2842 19.3169 24.2817 19.3557 24.273 19.3957C24.2656 19.4332 24.2519 19.4745 24.2358 19.5146L24.2482 19.4945L24.2631 19.4695Z" fill="white"/>
<path d="M24.0069 20.1726C23.9958 20.1852 23.9859 20.199 23.9748 20.2116C23.9526 20.2354 23.9329 20.258 23.9119 20.2781H23.9106C23.9106 20.2781 23.9131 20.2869 23.9131 20.2907C23.9353 20.2681 23.9563 20.2467 23.9724 20.2266C23.9872 20.2078 23.9983 20.1902 24.0069 20.1739V20.1726Z" fill="white"/>
<path d="M23.9285 20.0852C23.92 20.0989 23.9102 20.1139 23.9017 20.1277C23.8907 20.1452 23.8773 20.164 23.8651 20.1815C23.8944 20.1527 23.92 20.1277 23.9395 20.1089C23.9688 20.0814 23.9846 20.0676 23.9858 20.0689C23.9871 20.0701 23.9736 20.0877 23.948 20.1177C23.9224 20.1477 23.8834 20.1903 23.8358 20.2428C23.8224 20.2578 23.8053 20.2753 23.7907 20.2916C23.7639 20.3291 23.7346 20.3679 23.7065 20.4055C23.7431 20.3804 23.7736 20.3579 23.7956 20.3367L23.798 20.3342C23.7834 20.3429 23.7748 20.3479 23.7736 20.3467C23.7724 20.3454 23.7846 20.3329 23.8066 20.3141L23.8249 20.2979C23.8322 20.2916 23.8383 20.2854 23.8468 20.2778C23.8627 20.2628 23.881 20.2478 23.898 20.2278L23.9273 20.1978C23.9371 20.1878 23.9468 20.1752 23.9578 20.164C23.9785 20.1415 23.9993 20.1139 24.0212 20.0864C24.0627 20.0301 24.1054 19.965 24.1432 19.8925C24.1798 19.8199 24.209 19.7473 24.231 19.681C24.2408 19.6472 24.2517 19.6147 24.2578 19.5847C24.2615 19.5696 24.2651 19.5546 24.2688 19.5409L24.2761 19.4996C24.2761 19.4996 24.2786 19.4883 24.2786 19.4821L24.2676 19.5046L24.2383 19.5646C24.2286 19.5872 24.2139 19.6084 24.2005 19.6322L24.1786 19.6697L24.1676 19.6885L24.1542 19.7073C24.1432 19.7235 24.131 19.7411 24.1188 19.7586C24.0798 19.8474 24.0359 19.9287 23.9895 19.9988C23.9688 20.0288 23.948 20.0576 23.9273 20.0839L23.9285 20.0852Z" fill="white"/>
<path d="M17.0781 20.4826C17.0561 20.4638 17.0366 20.4438 17.0171 20.425C17.1061 20.5201 17.1976 20.604 17.2879 20.6765C17.3964 20.7641 17.5025 20.833 17.5989 20.873C17.6281 20.8855 17.655 20.8943 17.6818 20.9018C17.6379 20.878 17.594 20.8542 17.5501 20.8279C17.372 20.7216 17.2135 20.6027 17.0781 20.4826Z" fill="white"/>
<path d="M18.6238 21.1626C18.6397 21.169 18.6568 21.1753 18.6728 21.1817C18.6887 21.1817 18.7046 21.1829 18.7193 21.1817C18.7303 21.1817 18.7401 21.1804 18.7499 21.1791C18.7438 21.1766 18.7376 21.1741 18.7315 21.1715C18.696 21.1703 18.6605 21.1677 18.6226 21.1614L18.6238 21.1626Z" fill="white"/>
<path d="M18.5042 21.0596C18.4445 21.0421 18.3859 21.0233 18.3286 21.0046C18.2188 20.967 18.1151 20.9258 18.0127 20.882C18.1371 20.9508 18.2578 21.0108 18.3725 21.0621C18.403 21.0746 18.4335 21.0884 18.4628 21.0997C18.5335 21.1197 18.6006 21.1335 18.664 21.141C18.6372 21.1285 18.6103 21.1159 18.5847 21.1022C18.5567 21.0872 18.5298 21.0734 18.5042 21.0584V21.0596Z" fill="white"/>
<path d="M18.7075 21.1203C18.6977 21.1165 18.6892 21.1127 18.6794 21.1076C18.6598 21.1026 18.6402 21.0975 18.6206 21.0924C18.6451 21.1038 18.6708 21.1165 18.6977 21.1279C18.7137 21.1355 18.732 21.1419 18.7479 21.1495C18.7577 21.1495 18.7688 21.1495 18.7785 21.1508C18.7528 21.1406 18.7296 21.1292 18.7075 21.1203Z" fill="white"/>
<path d="M18.5404 21.1706C18.5539 21.1731 18.5673 21.1731 18.5808 21.1744L18.571 21.1706C18.5343 21.1579 18.4951 21.1427 18.4559 21.1275C18.4437 21.1237 18.4302 21.1211 18.418 21.1173C18.4302 21.1287 18.4461 21.1427 18.4645 21.1566C18.4902 21.1617 18.5159 21.1668 18.5392 21.1706H18.5404Z" fill="white"/>
<path d="M17.8789 20.9291C17.8679 20.9316 17.8545 20.9341 17.8398 20.9353C17.835 20.9353 17.8276 20.9353 17.8215 20.9353C17.9118 20.9779 18.0021 21.0154 18.0874 21.0467C18.2143 21.093 18.335 21.128 18.4436 21.1506C18.4277 21.1355 18.4143 21.123 18.4045 21.1118C18.4021 21.1118 18.3984 21.1105 18.396 21.1093C18.2484 21.0655 18.0947 20.9917 17.9411 20.9016C17.8301 20.8365 17.7264 20.7652 17.6337 20.6939C17.6142 20.6826 17.5922 20.6726 17.5727 20.6601C17.5166 20.6263 17.463 20.5925 17.4093 20.5587C17.3556 20.5249 17.3056 20.4899 17.2568 20.4536C17.1593 20.3823 17.0678 20.311 16.9824 20.2397C16.8751 20.1496 16.7775 20.0645 16.686 19.9832L16.6897 19.9894C16.7116 20.0269 16.7373 20.0645 16.7629 20.102C16.7739 20.112 16.7787 20.117 16.7787 20.1183C16.7787 20.1183 16.7763 20.1183 16.7751 20.1183C16.7873 20.1371 16.8007 20.1546 16.8141 20.1733C16.8946 20.2622 16.9885 20.3598 17.0995 20.4574C17.2337 20.575 17.391 20.6926 17.5679 20.7977C17.6435 20.8428 17.7191 20.8828 17.7935 20.9191C17.8106 20.9191 17.8252 20.9203 17.8398 20.9191C17.8545 20.9191 17.8667 20.9178 17.8789 20.9166C17.8898 20.9166 17.8996 20.9141 17.9069 20.9128C17.9216 20.9103 17.9301 20.9091 17.9301 20.9103C17.9301 20.9103 17.9228 20.9141 17.9081 20.9191C17.9008 20.9216 17.8911 20.9241 17.8801 20.9266L17.8789 20.9291Z" fill="white"/>
<path d="M20.2964 21.371C20.261 21.361 20.2342 21.3535 20.2159 21.3485C20.1976 21.3435 20.1879 21.3398 20.1879 21.3385C20.1879 21.3385 20.1964 21.3385 20.2074 21.341C20.1915 21.336 20.1757 21.3322 20.161 21.3272C19.8342 21.3085 19.5158 21.2747 19.2109 21.2234C19.1072 21.2059 19.0072 21.1859 18.9072 21.1633C18.9072 21.1633 18.8962 21.1671 18.8901 21.1683L18.9389 21.1846C18.9682 21.1946 18.9987 21.2034 19.0304 21.2134C19.0938 21.2347 19.1621 21.2522 19.2341 21.2722C19.3792 21.3097 19.539 21.3448 19.7097 21.371C19.7378 21.3748 19.7659 21.3785 19.7939 21.3823C19.8537 21.3861 19.911 21.3886 19.9683 21.3898C19.9598 21.3898 19.95 21.3873 19.9415 21.3861C19.9037 21.3798 19.8671 21.3748 19.8329 21.3698L19.8073 21.366L19.7829 21.361L19.7366 21.3523C19.6768 21.341 19.6256 21.331 19.5841 21.3197C19.5427 21.3097 19.5097 21.301 19.489 21.296C19.467 21.2897 19.4561 21.286 19.4561 21.286C19.4561 21.286 19.4683 21.286 19.4902 21.2897C19.5122 21.2935 19.5451 21.2997 19.5866 21.3085C19.628 21.3172 19.6805 21.3247 19.7402 21.3347L19.7866 21.3423L19.811 21.346L19.8366 21.3498L19.9439 21.3635C20.022 21.3735 20.1086 21.3823 20.2025 21.3886C20.2537 21.3873 20.3025 21.3848 20.3501 21.3823L20.2964 21.3685V21.371Z" fill="white"/>
<path d="M20.1946 21.4215C20.2351 21.4228 20.2755 21.4241 20.3134 21.4253C20.2779 21.4228 20.2436 21.4203 20.2106 21.4177C20.1971 21.4177 20.1849 21.419 20.1714 21.419C20.1787 21.419 20.1861 21.419 20.1946 21.4203V21.4215Z" fill="white"/>
<path d="M18.6173 21.2394C18.6747 21.2619 18.7405 21.2832 18.8161 21.3019C18.9662 21.342 19.1467 21.3808 19.3491 21.4121C19.4113 21.4208 19.476 21.4296 19.5431 21.4358C19.6565 21.4408 19.7748 21.4433 19.8968 21.4433C19.9504 21.4433 20.0041 21.4433 20.0565 21.4421C19.9687 21.4358 19.8773 21.4271 19.7833 21.4146C19.6809 21.4083 19.5748 21.397 19.4662 21.3808C19.2674 21.3495 19.0808 21.3019 18.9162 21.2444C18.8698 21.2281 18.8247 21.2106 18.782 21.1931C18.7649 21.1956 18.7466 21.1981 18.7271 21.1993L18.7637 21.2119C18.8198 21.2319 18.8723 21.2456 18.9174 21.2594C18.9406 21.2657 18.9613 21.2732 18.9808 21.2782L19.0345 21.2919C19.0991 21.3082 19.1345 21.3195 19.1345 21.3207C19.1345 21.3232 19.0979 21.317 19.032 21.3032L18.9771 21.2919C18.9576 21.2869 18.9357 21.2819 18.9125 21.2757C18.8662 21.2632 18.8137 21.2519 18.7564 21.2331L18.6661 21.2056C18.6661 21.2056 18.6576 21.2018 18.6527 21.2006C18.6161 21.2006 18.5783 21.1981 18.5368 21.1931C18.5283 21.1931 18.5198 21.1906 18.5112 21.1893C18.5198 21.1943 18.5283 21.1993 18.5381 21.2043C18.5612 21.2169 18.5868 21.2294 18.6149 21.2406L18.6173 21.2394Z" fill="white"/>
<path d="M23.3872 19.9938C23.3604 20.0101 23.3336 20.0226 23.3079 20.0339C23.2653 20.0514 23.225 20.0614 23.1872 20.0664C23.1579 20.1064 23.1274 20.1477 23.0957 20.189C22.9981 20.3142 22.8872 20.4418 22.7554 20.5682C22.6249 20.6933 22.4725 20.8147 22.2968 20.9173C22.209 20.9686 22.1151 21.0148 22.0151 21.0536C21.9151 21.0924 21.8102 21.125 21.7029 21.1487C21.487 21.1975 21.2601 21.2163 21.0296 21.2213C20.9137 21.2238 20.7979 21.2226 20.6808 21.2213C20.6015 21.2201 20.521 21.2176 20.4393 21.215C20.4332 21.215 20.4271 21.215 20.4173 21.2163C20.3942 21.2176 20.36 21.2201 20.3149 21.2201C20.2259 21.2213 20.0978 21.2188 19.9392 21.2C19.8965 21.1963 19.8526 21.19 19.8063 21.1825C19.7917 21.1825 19.7782 21.18 19.7636 21.18L19.6685 21.1713C19.6368 21.1688 19.6038 21.165 19.5721 21.1612C19.5404 21.1575 19.5075 21.1537 19.4758 21.15L19.3782 21.1375C19.3135 21.13 19.2477 21.1175 19.1818 21.1074C19.1635 21.1049 19.1465 21.1012 19.1282 21.0974C19.1221 21.1012 19.116 21.1037 19.1074 21.1074C19.4514 21.1713 19.8148 21.2113 20.1893 21.2326C20.5198 21.2501 20.8442 21.2613 21.1552 21.2488C21.3053 21.2426 21.4528 21.2301 21.5968 21.21C21.6224 21.2013 21.6455 21.1938 21.6614 21.19C21.6833 21.1838 21.6955 21.18 21.6955 21.1813C21.6955 21.1825 21.6846 21.1875 21.6638 21.1963C21.659 21.1975 21.6529 21.2013 21.6468 21.2025C21.7809 21.1813 21.9126 21.155 22.0383 21.1187C22.081 21.1062 22.1212 21.0912 22.1627 21.0774C22.1651 21.0749 22.1651 21.0737 22.1676 21.0712C22.1846 21.0574 22.2115 21.0411 22.2444 21.0224C22.3115 20.9861 22.4078 20.9398 22.5225 20.876C22.6371 20.8121 22.7688 20.7308 22.9067 20.6282C23.0445 20.5256 23.1884 20.4017 23.3323 20.2604C23.4055 20.1878 23.475 20.114 23.5409 20.0414C23.5055 20.0489 23.4787 20.0451 23.4641 20.0289C23.4494 20.0114 23.4506 19.9813 23.4641 19.9413C23.4384 19.9613 23.4141 19.9788 23.3884 19.9938H23.3872Z" fill="white"/>
<path d="M22.6028 18.183C22.5296 18.168 22.4454 18.1467 22.3491 18.1217C22.3308 18.1167 22.3113 18.1117 22.293 18.1067C22.3296 18.1317 22.3661 18.1567 22.4015 18.1805C22.5406 18.2306 22.6491 18.2706 22.7186 18.3044C22.7479 18.2994 22.7772 18.2969 22.8064 18.2969C22.8125 18.2944 22.8186 18.2932 22.8247 18.2919C22.7784 18.2706 22.7308 18.2481 22.6808 18.2231C22.6552 18.2106 22.6284 18.1968 22.6015 18.183H22.6028Z" fill="white"/>
<path d="M16.4783 19.726C16.5017 19.7486 16.5276 19.7725 16.5548 19.7951C16.5449 19.7737 16.5351 19.7524 16.5264 19.7323C16.5141 19.721 16.5017 19.7084 16.4894 19.6959C16.4783 19.6845 16.4672 19.672 16.4561 19.6594C16.4573 19.6644 16.4585 19.6695 16.461 19.6745C16.4672 19.6908 16.4733 19.7084 16.4795 19.7248L16.4783 19.726Z" fill="white"/>
<path d="M16.6096 20.0445C16.6267 20.0732 16.6425 20.1008 16.6584 20.1258C16.6669 20.1383 16.6742 20.1508 16.6816 20.1621C16.6901 20.1733 16.6974 20.1846 16.7047 20.1946C16.7255 20.2234 16.745 20.2484 16.7596 20.2684C16.7413 20.2409 16.723 20.2134 16.7035 20.1834C16.6608 20.1183 16.6218 20.0582 16.5864 20.0032C16.5937 20.0169 16.6011 20.032 16.6084 20.0457L16.6096 20.0445Z" fill="white"/>
<path d="M16.5768 19.9025L16.5896 19.9204L16.5934 19.9255L16.5755 19.8999C16.5691 19.8909 16.564 19.882 16.5589 19.873L16.5538 19.8654L16.5513 19.8628C16.5602 19.8756 16.5679 19.8897 16.5768 19.9012V19.9025Z" fill="white"/>
<path d="M16.6204 19.9267C16.6104 19.9179 16.6016 19.9104 16.5928 19.9016L16.6054 19.9179L16.6494 19.9757C16.6393 19.9594 16.6293 19.9431 16.6204 19.9267Z" fill="white"/>
<path d="M16.9692 19.3901C16.9997 19.5052 17.0668 19.6128 17.1522 19.7141C17.1753 19.7417 17.1997 19.768 17.2254 19.7942C17.2497 19.803 17.2766 19.813 17.3059 19.8255C17.3376 19.8393 17.3717 19.8543 17.4083 19.8718C17.3327 19.803 17.2644 19.7367 17.2107 19.6754C17.1668 19.6253 17.1327 19.579 17.107 19.539C17.0888 19.5177 17.0705 19.4964 17.0546 19.4764C17.0144 19.4239 16.9814 19.3713 16.9546 19.3225L16.9595 19.3488C16.9619 19.3638 16.9668 19.3776 16.9704 19.3926L16.9692 19.3901Z" fill="white"/>
<path d="M16.6275 19.4225C16.6386 19.4413 16.6535 19.4613 16.6696 19.4801V19.4763C16.6634 19.4538 16.656 19.4325 16.6523 19.41L16.6411 19.3437C16.6361 19.2999 16.6324 19.2549 16.6324 19.2111C16.6324 19.1923 16.6349 19.1748 16.6349 19.156L16.6299 19.1673C16.6151 19.2061 16.6039 19.2411 16.5977 19.2699C16.5953 19.2849 16.594 19.2986 16.5928 19.3099C16.5928 19.3224 16.5928 19.3324 16.5953 19.3449C16.599 19.3687 16.6101 19.3937 16.625 19.42L16.6275 19.4225Z" fill="white"/>
<path d="M17.0252 20.1913C17.0826 20.2363 17.1423 20.2826 17.2045 20.3289C17.1862 20.3114 17.1692 20.2939 17.1521 20.2776C17.1082 20.2363 17.0716 20.195 17.0387 20.16C17.0228 20.1425 17.007 20.1262 16.9935 20.1112C16.9801 20.0949 16.9679 20.0812 16.9569 20.0686C16.9521 20.0636 16.9496 20.0599 16.946 20.0549C16.8606 20.0011 16.7716 19.9385 16.6825 19.8684L16.635 19.8297C16.6191 19.8159 16.6032 19.8034 16.5874 19.7896C16.5825 19.7859 16.5776 19.7809 16.5728 19.7771C16.5825 19.7984 16.5935 19.8196 16.6057 19.8409C16.7301 19.9473 16.8691 20.0674 17.0252 20.1925V20.1913Z" fill="white"/>
<path d="M23.5315 20.5141C23.5315 20.5141 23.5413 20.5079 23.5473 20.5041C23.6169 20.4316 23.6827 20.3652 23.7401 20.3064C23.7584 20.2802 23.7779 20.2551 23.7949 20.2301C23.7901 20.2351 23.784 20.2401 23.7803 20.2439C23.7705 20.2526 23.762 20.2614 23.7523 20.2676L23.7425 20.2751C23.6827 20.3452 23.6193 20.4165 23.5498 20.4854C23.5449 20.4941 23.54 20.5016 23.5339 20.5104L23.5303 20.5154H23.5315V20.5141Z" fill="white"/>
<path d="M16.2762 20.0571C16.2762 20.0571 16.2713 20.0471 16.2676 20.0421V20.0471C16.2664 20.0984 16.2676 20.1485 16.2676 20.1998C16.3054 20.2185 16.3518 20.2423 16.4055 20.2736C16.3554 20.1935 16.3115 20.1197 16.2762 20.0571Z" fill="white"/>
<path d="M17.1081 18.9291C17.0976 18.9185 17.0886 18.9065 17.0796 18.8944C17.0871 18.9065 17.0931 18.917 17.1006 18.9291H17.1081Z" fill="white"/>
<path d="M16.5901 20.1752C16.6694 20.3016 16.7438 20.4167 16.806 20.5093C16.8682 20.5443 16.9328 20.5819 17.0023 20.6194C17.0938 20.6695 17.1902 20.7208 17.2914 20.7721C17.2145 20.6995 17.1645 20.6444 17.1694 20.6394C17.1755 20.6332 17.2755 20.7183 17.3987 20.8246C17.4451 20.8471 17.4926 20.8697 17.5402 20.8922C17.728 20.9798 17.911 21.0561 18.0793 21.1224C18.0756 21.1199 18.0744 21.1174 18.0744 21.1174C18.0768 21.1124 18.1244 21.1362 18.2013 21.17C18.2074 21.1725 18.2134 21.175 18.2208 21.1775C18.2622 21.1925 18.3025 21.2075 18.3403 21.2225C18.4037 21.2438 18.4623 21.2663 18.5184 21.2863H18.5208C18.7745 21.3614 18.9892 21.3701 18.9892 21.3802C18.9892 21.3839 18.9355 21.3864 18.8477 21.3802C18.8208 21.3777 18.7916 21.3739 18.7599 21.3701C18.7794 21.3764 18.7989 21.3814 18.816 21.3852L18.8587 21.3902C18.8769 21.3927 18.8952 21.3939 18.9148 21.3952C18.9526 21.3989 18.9928 21.4027 19.0343 21.4064C19.0879 21.4102 19.1441 21.4152 19.2026 21.4189C19.0562 21.3914 18.9233 21.3589 18.8099 21.3264C18.7342 21.3063 18.6672 21.2826 18.6098 21.2575C18.5818 21.245 18.555 21.2313 18.5318 21.2187C18.5123 21.2075 18.4952 21.1962 18.4806 21.185C18.4293 21.1762 18.3769 21.1662 18.3208 21.1512C18.283 21.1399 18.2427 21.1299 18.2025 21.1174C18.1622 21.1049 18.1208 21.0899 18.0781 21.0761C17.9707 21.0386 17.8585 20.9898 17.7451 20.9335C17.6988 20.9285 17.6475 20.9172 17.5914 20.8947C17.4914 20.8559 17.3816 20.7883 17.2707 20.7007C17.1597 20.6131 17.0438 20.508 16.9365 20.3842C16.8669 20.3041 16.806 20.2228 16.7511 20.1414L16.7474 20.1377C16.7291 20.1139 16.712 20.0914 16.695 20.0701C16.684 20.0613 16.6718 20.0513 16.6584 20.0401C16.6462 20.0301 16.6328 20.0163 16.6206 20.0025C16.6547 20.0526 16.6913 20.1076 16.7303 20.1665C16.806 20.2828 16.8743 20.3879 16.9218 20.4655C16.9694 20.5431 16.9974 20.5919 16.9938 20.5944C16.9901 20.5969 16.956 20.5518 16.9035 20.478C16.8743 20.4355 16.8377 20.3829 16.7986 20.3241C16.7852 20.3154 16.7425 20.2753 16.6889 20.209C16.6816 20.199 16.673 20.189 16.6645 20.1777C16.6559 20.1665 16.6474 20.1539 16.6389 20.1427C16.6206 20.1189 16.6047 20.0901 16.5864 20.0613C16.5523 20.0025 16.5181 19.9362 16.4888 19.8624C16.4827 19.8449 16.4779 19.8286 16.4718 19.8124C16.4571 19.7861 16.4474 19.7686 16.4449 19.7611C16.4169 19.731 16.3901 19.701 16.3669 19.671C16.3425 19.6384 16.3218 19.6059 16.3047 19.5734C16.2998 19.6084 16.2961 19.6434 16.2925 19.6785C16.3083 19.7047 16.3266 19.7373 16.3486 19.7748C16.4096 19.8787 16.4937 20.0213 16.5913 20.1765L16.5901 20.1752Z" fill="white"/>
<path d="M16.461 20.3062C16.4964 20.3262 16.533 20.3475 16.572 20.3713L16.6184 20.3988C16.6342 20.4088 16.6513 20.4176 16.6671 20.4276C16.6952 20.4438 16.7232 20.4601 16.7525 20.4776C16.6952 20.395 16.6293 20.2987 16.5622 20.1911C16.4647 20.0347 16.383 19.8895 16.3269 19.7832C16.311 19.7531 16.2976 19.7281 16.2866 19.7043C16.2768 19.8032 16.2695 19.902 16.2671 20.0034L16.2927 20.0447C16.3378 20.1173 16.3952 20.2073 16.4598 20.3062H16.461Z" fill="white"/>
<path d="M16.4246 19.6683C16.416 19.6433 16.4099 19.6195 16.405 19.5958C16.4013 19.5895 16.3963 19.5858 16.3927 19.5795C16.3656 19.537 16.3398 19.4882 16.3238 19.4331C16.3201 19.4556 16.3177 19.4782 16.314 19.5019C16.3336 19.5482 16.3631 19.5958 16.4013 19.6421C16.4086 19.6508 16.4173 19.6608 16.4246 19.6696V19.6683Z" fill="white"/>
<path d="M17.1992 18.7266C17.1992 18.7266 17.2114 18.7379 17.2163 18.7441C17.2407 18.7666 17.2687 18.7892 17.3004 18.8079C17.3053 18.8104 17.3102 18.813 17.3151 18.8155C17.3151 18.813 17.3151 18.8104 17.3151 18.8092C17.3175 18.7942 17.3212 18.7867 17.326 18.7854C17.3309 18.7854 17.3382 18.7904 17.3456 18.8017C17.3492 18.8079 17.3541 18.8155 17.359 18.823C17.3614 18.828 17.3639 18.833 17.3675 18.8392C17.4151 18.858 17.4663 18.8705 17.52 18.8718C17.4895 18.8417 17.4614 18.8117 17.4358 18.7804C17.4322 18.7779 17.4285 18.7767 17.4261 18.7742C17.4187 18.7691 17.4114 18.7641 17.4029 18.7579C17.387 18.7466 17.3724 18.7341 17.3565 18.7216C17.3443 18.7103 17.3334 18.6978 17.3212 18.6853C17.3041 18.6853 17.2858 18.6853 17.2687 18.6853C17.2394 18.6878 17.2102 18.6903 17.1809 18.6953H17.1748C17.1748 18.6953 17.1797 18.7028 17.1833 18.7066L17.1992 18.7253V18.7266Z" fill="white"/>
<path d="M23.0195 17.6276C22.9415 17.5463 22.8573 17.4637 22.7671 17.3862C22.7219 17.3474 22.6744 17.3098 22.6244 17.2735C22.5744 17.2373 22.5219 17.2035 22.467 17.1697C22.4121 17.1359 22.3536 17.1034 22.2951 17.0696C22.2658 17.0533 22.2341 17.0371 22.2036 17.0208C22.1731 17.0045 22.1426 16.9883 22.1109 16.972C22.0475 16.9407 21.9853 16.9082 21.9194 16.8782C21.8865 16.8631 21.8548 16.8469 21.8206 16.8319L21.7194 16.7881C21.4474 16.6729 21.1559 16.5703 20.8461 16.499C20.8071 16.489 20.768 16.4815 20.729 16.474C20.69 16.4665 20.651 16.4577 20.6107 16.4515C20.5705 16.4452 20.5314 16.4377 20.4912 16.4315C20.4509 16.4265 20.4107 16.4214 20.3704 16.4164C20.2082 16.3977 20.0436 16.3889 19.8765 16.3889C19.7838 16.3902 19.6911 16.3964 19.5996 16.4052C19.6289 16.4077 19.6594 16.4102 19.6899 16.4139C19.7508 16.4202 19.8155 16.429 19.8838 16.4377C20.0204 16.4577 20.1692 16.484 20.3241 16.5178C20.7949 16.6191 21.1864 16.7555 21.3401 16.8531L21.3986 16.8894C21.6743 16.962 21.9157 17.0571 22.117 17.1534C22.1548 17.1722 22.1914 17.1897 22.2255 17.2085C22.3878 17.2598 22.5158 17.3198 22.6061 17.3736C22.6207 17.3824 22.6341 17.3912 22.6475 17.3987L22.6658 17.4099L22.6829 17.4224C22.7036 17.4387 22.7219 17.4525 22.7354 17.465C22.7622 17.49 22.7744 17.5075 22.7695 17.5175C22.7646 17.5263 22.7476 17.5288 22.7195 17.525C22.8073 17.5976 22.8476 17.6464 22.8378 17.6627C22.8342 17.6677 22.8268 17.6689 22.8146 17.6677C22.8232 17.6739 22.8317 17.6789 22.8403 17.6852C22.95 17.7628 23.0464 17.8429 23.1269 17.9204C23.1964 17.988 23.2525 18.0543 23.3001 18.1169C23.322 18.1306 23.3415 18.1457 23.361 18.1582C23.522 18.272 23.6111 18.3634 23.5916 18.4034C23.5842 18.4184 23.5611 18.4247 23.5257 18.4234C23.5513 18.4472 23.5745 18.471 23.5952 18.496C23.6391 18.5486 23.6745 18.6011 23.705 18.6512C23.7208 18.6762 23.7355 18.7 23.7501 18.725C23.7648 18.75 23.7806 18.7775 23.7952 18.8076C23.8099 18.8376 23.8233 18.8689 23.8343 18.9039C23.8379 18.9164 23.8416 18.9302 23.844 18.944C23.8514 18.8876 23.8526 18.8313 23.844 18.775C23.844 18.7638 23.8404 18.7538 23.8379 18.7438L23.8306 18.7125C23.8245 18.6912 23.8184 18.6699 23.8099 18.6487C23.7928 18.6061 23.7709 18.5611 23.744 18.5135C23.7184 18.4672 23.6879 18.4159 23.6599 18.3659C23.644 18.3371 23.6269 18.3083 23.6111 18.2795C23.5586 18.2182 23.5013 18.1532 23.4379 18.0831C23.3757 18.0155 23.3098 17.943 23.2403 17.8666C23.1696 17.7903 23.0964 17.709 23.0183 17.6276H23.0195Z" fill="white"/>
<path d="M24.2832 19.5919C24.2832 19.5919 24.282 19.5994 24.2808 19.6019C24.293 19.5681 24.3003 19.5481 24.3039 19.5481C24.3076 19.5481 24.2978 19.6094 24.2674 19.702L24.2552 19.7383C24.2503 19.7508 24.2454 19.7633 24.2405 19.7771C24.2308 19.8046 24.2173 19.8322 24.2039 19.8609C24.1759 19.9185 24.1417 19.9811 24.1015 20.0436C24.0807 20.0749 24.0588 20.1062 24.0368 20.1337C24.0356 20.1375 24.0344 20.1412 24.0332 20.1462C24.0234 20.1725 24.0088 20.2025 23.9856 20.2351C23.9673 20.2613 23.9429 20.2889 23.9161 20.3164C23.9161 20.3402 23.9112 20.3702 23.899 20.4027C23.8819 20.449 23.8515 20.4991 23.81 20.5491C23.7892 20.5741 23.7661 20.5979 23.7429 20.6217C23.7283 20.6355 23.7124 20.6505 23.6978 20.6655C23.6892 20.6793 23.6648 20.7143 23.6246 20.7593C23.5734 20.8181 23.4977 20.897 23.4075 20.9733C23.3172 21.0509 23.2282 21.1122 23.1623 21.1522C23.0965 21.1923 23.0526 21.2135 23.0501 21.2098C23.0453 21.201 23.2087 21.1022 23.388 20.9483C23.4612 20.887 23.5246 20.8256 23.5758 20.7768C23.5465 20.8019 23.516 20.8269 23.4843 20.8532C23.4502 20.8807 23.4148 20.907 23.377 20.9358C23.3587 20.9495 23.3404 20.9645 23.3209 20.9783C23.3014 20.9921 23.2819 21.0058 23.2611 21.0196C23.1001 21.1309 22.9148 21.2423 22.7123 21.3424C22.5098 21.4413 22.3098 21.5201 22.1232 21.5789C22.0305 21.6089 21.9415 21.6314 21.8573 21.6527C21.8146 21.6627 21.7744 21.6715 21.7353 21.679C21.7158 21.6827 21.6963 21.6878 21.678 21.6903L21.6219 21.699C21.5853 21.7053 21.5512 21.7103 21.5182 21.714C21.4853 21.7178 21.4548 21.7203 21.4255 21.7228C21.3963 21.7253 21.3694 21.7265 21.3438 21.7278C21.3194 21.7278 21.2963 21.7278 21.2755 21.7278C21.1926 21.724 21.145 21.7115 21.1414 21.6903C21.134 21.6452 21.3024 21.5801 21.567 21.48L21.6182 21.4613C21.6353 21.455 21.6536 21.4475 21.6707 21.4413C21.6853 21.4363 21.7 21.43 21.7158 21.4237C21.7134 21.4225 21.7097 21.4212 21.7073 21.42C21.6561 21.43 21.6048 21.4388 21.5548 21.4463L21.4499 21.4588L21.4243 21.4613C21.4158 21.4613 21.4072 21.4613 21.3999 21.4625L21.3511 21.465C21.3511 21.465 21.3426 21.465 21.3377 21.465C21.306 21.4901 21.267 21.5126 21.2231 21.5326C21.1938 21.5451 21.1633 21.5576 21.1316 21.5689C21.0999 21.5789 21.067 21.5902 21.0316 21.6014C20.9621 21.6239 20.884 21.6427 20.7999 21.664C20.7572 21.674 20.7145 21.6815 20.6681 21.6915C20.645 21.6953 20.623 21.7003 20.5998 21.704C20.5767 21.7078 20.5523 21.7115 20.5291 21.7153C20.3376 21.7453 20.1229 21.7628 19.8985 21.7628C19.6741 21.7628 19.4607 21.7441 19.268 21.7153C19.1716 21.7015 19.0813 21.6827 18.9972 21.6652C18.9557 21.6552 18.9143 21.6452 18.8764 21.6352C18.8569 21.6302 18.8386 21.6252 18.8191 21.6202C18.8008 21.6139 18.7825 21.6089 18.7655 21.6039C18.7301 21.5927 18.6972 21.5826 18.6654 21.5714C18.6337 21.5601 18.6045 21.5489 18.5776 21.5376C18.5642 21.5326 18.552 21.5263 18.5398 21.5213C18.5288 21.5201 18.5203 21.5188 18.5093 21.5176C18.4593 21.5113 18.4069 21.5013 18.3508 21.4913C18.3617 21.4951 18.3715 21.5001 18.3825 21.5038C18.4727 21.5376 18.5606 21.5676 18.6411 21.5939C18.7215 21.6189 18.7935 21.6415 18.8545 21.6577C18.9765 21.6915 19.0533 21.7115 19.0521 21.7153C19.0521 21.7178 19.0326 21.7153 18.9972 21.709C18.9801 21.7065 18.9582 21.7028 18.9338 21.6965C18.9094 21.6915 18.8801 21.6853 18.8496 21.6777C18.7874 21.664 18.7142 21.644 18.6325 21.6202C18.552 21.5952 18.463 21.5664 18.3715 21.5326C18.3008 21.5063 18.2349 21.4788 18.1727 21.4513C18.1617 21.4488 18.152 21.4463 18.1422 21.4438C18.1203 21.4375 18.0971 21.4325 18.0739 21.4262C18.0507 21.42 18.0276 21.4125 18.0044 21.4062C17.8178 21.3512 17.6153 21.2773 17.4116 21.1823C17.2933 21.1272 17.1811 21.0671 17.075 21.0058C17.0945 21.0221 17.1128 21.0384 17.1348 21.0571C17.164 21.0822 17.1945 21.1059 17.2287 21.1322C17.2958 21.1835 17.3702 21.2398 17.4507 21.2949C17.5312 21.3499 17.6104 21.3987 17.6824 21.4413C17.719 21.4625 17.7531 21.4825 17.7873 21.5001C17.8202 21.5188 17.8507 21.5339 17.88 21.5489C17.9934 21.6077 18.0654 21.6402 18.0642 21.644C18.0642 21.6465 18.0446 21.6402 18.0105 21.6277C17.9934 21.6214 17.9727 21.6139 17.9495 21.6039C17.9263 21.5939 17.8995 21.5826 17.8702 21.5689C17.841 21.5551 17.8092 21.5401 17.7763 21.5238C17.7422 21.5076 17.7068 21.4876 17.6702 21.4675C17.5958 21.4262 17.5165 21.3774 17.4348 21.3224C17.3531 21.2673 17.2787 21.211 17.2128 21.1572C17.1799 21.1297 17.1482 21.1047 17.1201 21.0784C17.0921 21.0534 17.0652 21.0296 17.0421 21.0071C17.0226 20.9896 17.0055 20.972 16.9896 20.9558C16.9457 20.9295 16.9043 20.902 16.8628 20.8744C16.8884 20.9095 16.914 20.9408 16.9372 20.9683C16.9835 21.0221 17.0262 21.0596 17.0591 21.0822C17.0921 21.1047 17.1116 21.1134 17.1116 21.1159C17.1116 21.1172 17.0896 21.1122 17.0531 21.0934C17.0177 21.0746 16.9701 21.0384 16.9213 20.9846C16.8811 20.9408 16.8384 20.8857 16.792 20.8269C16.7359 20.7881 16.6823 20.7493 16.6323 20.7118C16.614 20.6968 16.5969 20.683 16.5786 20.668C16.6054 20.703 16.631 20.7381 16.6591 20.7731C16.7384 20.8719 16.8164 20.9633 16.8908 21.0459C16.9274 21.0859 16.9628 21.1247 16.9969 21.1597C17.014 21.1772 17.0299 21.1948 17.0457 21.211C17.0616 21.2273 17.0774 21.2423 17.0921 21.2573C17.1214 21.2874 17.1482 21.3124 17.1714 21.3362C17.1945 21.3599 17.2153 21.3787 17.2323 21.395C17.2653 21.4275 17.2836 21.4463 17.2823 21.4475C17.2811 21.4488 17.2604 21.4338 17.225 21.4037C17.2067 21.3887 17.1848 21.3712 17.1604 21.3487C17.136 21.3261 17.1067 21.3024 17.0774 21.2736L17.0299 21.2285C17.0128 21.2123 16.9969 21.196 16.9799 21.1785C16.9445 21.1447 16.9091 21.1059 16.8713 21.0659C16.7969 20.9846 16.7164 20.8932 16.6371 20.7931C16.581 20.723 16.531 20.6542 16.4847 20.5879L16.4481 20.5554C16.42 20.5304 16.3944 20.5066 16.37 20.4841C16.3456 20.4603 16.3237 20.4378 16.3042 20.4165C16.2956 20.4065 16.2883 20.399 16.2798 20.3902C16.3176 21.0171 16.492 21.6077 16.7725 22.1319C16.8225 22.1845 16.8908 22.2508 16.9726 22.3171C17.1482 22.461 17.3165 22.5398 17.3116 22.5499C17.3104 22.5536 17.2665 22.5386 17.1994 22.5048C17.1653 22.4873 17.1275 22.466 17.0848 22.4385C17.0433 22.411 16.9982 22.3797 16.953 22.3434C16.9079 22.3071 16.8677 22.2696 16.8323 22.2345C16.8274 22.2295 16.8238 22.2258 16.8189 22.2208C16.8945 22.3534 16.9774 22.481 17.0665 22.6049C17.0787 22.6149 17.0909 22.6249 17.1031 22.6349C17.2482 22.7501 17.3799 22.8251 17.3763 22.8326C17.3738 22.8389 17.2628 22.7901 17.1348 22.6975C17.3287 22.9503 17.5507 23.1805 17.797 23.3819C17.9654 23.4745 18.1825 23.5921 18.4276 23.7035C18.5667 23.7661 18.7008 23.8186 18.8252 23.8612C18.8874 23.8812 18.9472 23.9012 19.0033 23.9162C19.0313 23.9237 19.0582 23.9325 19.085 23.9387C19.1118 23.945 19.1362 23.9512 19.1606 23.9563C19.2094 23.9688 19.2533 23.975 19.2924 23.9838C19.3119 23.9875 19.3302 23.9913 19.346 23.9938L19.3924 24C19.4472 24.0088 19.4777 24.0138 19.4777 24.0163C19.4777 24.0188 19.4472 24.0163 19.3911 24.0126L19.3448 24.0088C19.3277 24.0063 19.3094 24.0038 19.2899 24.0013C19.2509 23.995 19.2058 23.99 19.157 23.9788L19.0801 23.9625C19.0533 23.9563 19.0265 23.9487 18.9972 23.9412C18.9399 23.9275 18.8801 23.9087 18.8167 23.8887C18.6911 23.8474 18.5545 23.7948 18.4154 23.7323C18.2349 23.651 18.0702 23.5646 17.93 23.4858C18.2947 23.7598 18.7045 23.9738 19.1472 24.1114C19.2021 24.1227 19.3692 24.1727 19.5704 24.204C19.8168 24.244 20.0205 24.2415 20.0205 24.2515C20.0205 24.2553 19.9693 24.2616 19.8875 24.2616C19.8717 24.2616 19.8546 24.2616 19.8375 24.2616C19.9705 24.2778 20.1046 24.2878 20.2412 24.2903C21.1584 24.3091 22.011 24.0113 22.7013 23.4958C22.6367 23.5246 22.5708 23.5521 22.4988 23.5796C22.2891 23.6585 22.0927 23.7123 21.95 23.7435C21.878 23.7598 21.8207 23.7698 21.7792 23.7761C21.739 23.7823 21.7158 23.7848 21.7158 23.7823C21.7158 23.7773 21.8036 23.7586 21.9451 23.7223C22.0866 23.686 22.2793 23.6284 22.4879 23.5496C22.5915 23.5096 22.6903 23.4695 22.7781 23.4295C22.7855 23.4257 22.7928 23.4232 22.8001 23.4195C23.0453 23.2243 23.2685 23.0003 23.4648 22.7526C23.4612 22.7576 23.4563 22.7613 23.4526 22.7663C23.3672 22.8627 23.2867 22.9465 23.227 23.0066C23.1672 23.0654 23.1282 23.1004 23.1245 23.0979C23.1209 23.0941 23.155 23.0541 23.2111 22.9915C23.2672 22.929 23.3441 22.8414 23.4307 22.7463C23.516 22.65 23.5941 22.5636 23.6502 22.5011L23.6587 22.4923C23.7783 22.3146 23.8844 22.1282 23.9759 21.9317C23.938 21.9755 23.8954 22.0231 23.8478 22.0694C23.7978 22.1182 23.7466 22.1632 23.7002 22.2008C23.6526 22.2383 23.6087 22.2721 23.5709 22.2971C23.4953 22.3484 23.4441 22.3747 23.4429 22.3709C23.4404 22.3672 23.4868 22.3346 23.5587 22.2783C23.5953 22.2508 23.6368 22.217 23.6831 22.177C23.7283 22.1382 23.7783 22.0932 23.8283 22.0444C23.8783 21.9956 23.9234 21.9468 23.9637 21.903C23.9844 21.8792 24.0039 21.8567 24.0222 21.8354C24.1539 21.5351 24.2515 21.216 24.31 20.8832C24.2869 20.9282 24.2588 20.977 24.2234 21.0283C24.1771 21.0959 24.1222 21.166 24.0625 21.2361C23.9417 21.3787 23.8222 21.4976 23.7319 21.5789C23.6417 21.6602 23.5819 21.7065 23.5795 21.7028C23.577 21.699 23.6307 21.6477 23.7173 21.5626C23.8027 21.4775 23.9198 21.3562 24.0393 21.2148C24.099 21.1447 24.1551 21.0759 24.2015 21.0108C24.2478 20.9458 24.2856 20.8845 24.3137 20.8307C24.3174 20.8244 24.3198 20.8181 24.3235 20.8119C24.343 20.6868 24.3588 20.5591 24.3674 20.4315C24.3637 20.459 24.3552 20.5066 24.3344 20.5654C24.3186 20.6142 24.2942 20.6705 24.2625 20.7306C24.2308 20.7906 24.1893 20.8532 24.1417 20.9145C24.0466 21.0384 23.9441 21.1347 23.871 21.2035C23.7966 21.2711 23.7478 21.3111 23.7453 21.3074C23.7429 21.3036 23.7856 21.2586 23.8563 21.1873C23.9271 21.1147 24.0246 21.0158 24.1186 20.8957C24.2125 20.7743 24.2783 20.6517 24.3149 20.5579C24.3527 20.464 24.3637 20.4015 24.3686 20.4027C24.3722 20.3439 24.3747 20.2851 24.3759 20.2251C24.3515 20.2789 24.3161 20.3464 24.271 20.4165C24.171 20.5741 24.0637 20.6805 24.0576 20.6755C24.0503 20.6692 24.1466 20.5541 24.2454 20.399C24.3015 20.3101 24.3466 20.2301 24.3771 20.1763C24.3771 20.1262 24.3771 20.0762 24.3771 20.0274C24.3649 20.0524 24.3527 20.0787 24.3381 20.1062C24.3076 20.1637 24.2722 20.2263 24.2332 20.2901C24.193 20.3539 24.1527 20.4115 24.1137 20.464C24.0746 20.5153 24.0381 20.5604 24.0051 20.5979C23.9405 20.6717 23.8954 20.7118 23.8929 20.7093C23.8893 20.7055 23.9283 20.6592 23.9881 20.5829C24.0185 20.5441 24.0527 20.4978 24.0905 20.4465C24.1283 20.394 24.1673 20.3352 24.2076 20.2726C24.2466 20.21 24.282 20.1487 24.3137 20.0924C24.3369 20.0499 24.3576 20.0098 24.3759 19.9748C24.3735 19.9235 24.371 19.8722 24.3674 19.8209C24.3661 19.8259 24.3649 19.8297 24.3637 19.8347C24.3564 19.8597 24.3479 19.886 24.3381 19.9135C24.3186 19.9685 24.293 20.0274 24.2625 20.0874C24.2308 20.1475 24.1978 20.2013 24.1649 20.2488C24.1478 20.2726 24.132 20.2951 24.1149 20.3139C24.099 20.3339 24.0832 20.3527 24.0686 20.3689C24.01 20.434 23.9673 20.4678 23.9649 20.464C23.9612 20.4603 23.9978 20.4215 24.0515 20.3539C24.0649 20.3364 24.0795 20.3189 24.0942 20.2976C24.11 20.2776 24.1247 20.2551 24.1405 20.2313C24.1722 20.1838 24.2039 20.13 24.2344 20.0724C24.2649 20.0136 24.2905 19.956 24.3113 19.9035C24.321 19.8772 24.3308 19.8509 24.3393 19.8272C24.3479 19.8034 24.3552 19.7809 24.3613 19.7596V19.7558C24.3515 19.642 24.3369 19.5281 24.3186 19.4167L24.3161 19.423C24.3161 19.423 24.3161 19.4318 24.3161 19.4355C24.3149 19.4568 24.3137 19.4818 24.3088 19.5093L24.3027 19.5519C24.3003 19.5669 24.2966 19.5819 24.2942 19.5982L24.2832 19.5919ZM18.8569 23.6897L18.8191 23.681C18.8057 23.6772 18.7911 23.6735 18.7752 23.6685C18.7435 23.6597 18.7081 23.6497 18.6691 23.6359L18.6081 23.6159C18.5862 23.6084 18.5654 23.5997 18.5423 23.5921C18.4959 23.5759 18.4483 23.5559 18.3983 23.5346C18.2983 23.492 18.1886 23.4395 18.0776 23.3794C17.9666 23.3181 17.8653 23.2543 17.7739 23.1917C17.7287 23.1605 17.6861 23.1304 17.6482 23.1004C17.6287 23.0854 17.6104 23.0716 17.5921 23.0579L17.5421 23.0166C17.5092 22.9903 17.4824 22.9653 17.4568 22.944C17.4446 22.9327 17.4324 22.9227 17.4226 22.9127L17.3946 22.8864C17.3616 22.8539 17.3433 22.8351 17.3446 22.8339C17.3458 22.8326 17.3665 22.8477 17.4019 22.8777L17.4311 22.9027L17.4665 22.9315C17.4921 22.9515 17.5214 22.9765 17.5543 23.0003C17.5702 23.0128 17.5885 23.0266 17.6056 23.0391C17.6239 23.0529 17.6421 23.0666 17.6617 23.0804C17.7007 23.1092 17.7434 23.1379 17.7885 23.1692C17.8788 23.2293 17.9812 23.2931 18.091 23.3532C18.2008 23.4132 18.3081 23.4658 18.4081 23.5096C18.4581 23.5308 18.5057 23.5521 18.5508 23.5684C18.5728 23.5771 18.5947 23.5859 18.6154 23.5934L18.6764 23.6159C18.7142 23.6309 18.7496 23.6422 18.7813 23.6522L18.824 23.6672C18.8374 23.671 18.8496 23.676 18.8606 23.6785C18.9045 23.6922 18.9277 23.7023 18.9277 23.7035C18.9277 23.706 18.9021 23.701 18.8569 23.6897ZM18.663 21.8179C18.5935 21.7879 18.5508 21.7666 18.5532 21.7628C18.5569 21.7541 18.7313 21.8204 18.9521 21.8905C19.1716 21.9605 19.3533 22.0068 19.3509 22.0156C19.3509 22.0193 19.3033 22.0131 19.2289 21.9981C19.1545 21.9818 19.0533 21.9568 18.9423 21.9217C18.8313 21.8867 18.7337 21.8492 18.663 21.8191V21.8179ZM19.1436 22.3559C19.0301 22.3159 18.9399 22.2758 18.9423 22.2671C18.9447 22.2583 19.0399 22.2846 19.1533 22.3246C19.2667 22.3647 19.357 22.4047 19.3546 22.4135C19.3521 22.4222 19.257 22.396 19.1436 22.3559ZM21.0035 21.9092C21.1475 21.8967 21.2658 21.8942 21.2658 21.9042C21.2658 21.913 21.1499 21.9292 21.006 21.9418C20.8621 21.9543 20.7438 21.9568 20.7438 21.9468C20.7438 21.938 20.8596 21.9217 21.0035 21.9092ZM20.4937 23.0516C20.4937 23.0604 20.4242 23.0604 20.34 23.0616C20.2559 23.0616 20.1876 23.0641 20.1864 23.0554C20.1864 23.0466 20.2534 23.0303 20.34 23.0291C20.4266 23.0278 20.4949 23.0428 20.4949 23.0504L20.4937 23.0516ZM19.5936 21.8429C19.5948 21.8341 19.7766 21.8592 20.001 21.8767C20.2254 21.8955 20.4083 21.9005 20.4083 21.9092C20.4083 21.913 20.362 21.918 20.2876 21.9192L19.9973 21.9092C19.8839 21.9005 19.7827 21.8854 19.7095 21.8729C19.6363 21.8592 19.5912 21.8479 19.5924 21.8442L19.5936 21.8429ZM20.0851 23.4845C20.2461 23.5071 20.3779 23.5221 20.3779 23.5308C20.3779 23.5396 20.2437 23.5396 20.0803 23.5158C19.9168 23.4933 19.7888 23.4558 19.79 23.447C19.7924 23.4382 19.9229 23.4608 20.0839 23.4845H20.0851ZM20.2144 24.1352C20.0315 24.1414 19.8839 24.1152 19.8851 24.1064C19.8851 24.0976 20.0327 24.1089 20.2132 24.1026C20.3937 24.0976 20.5401 24.0776 20.5413 24.0864C20.5425 24.0939 20.3974 24.1289 20.2144 24.1352ZM21.8719 23.8812C21.95 23.8612 22.0134 23.8449 22.0573 23.8349C22.1012 23.8236 22.1256 23.8186 22.1268 23.8211C22.1268 23.8236 22.1037 23.8324 22.061 23.8474C22.0183 23.8624 21.9549 23.8812 21.878 23.9037C21.7219 23.9487 21.5048 24.0051 21.2633 24.0564C21.0218 24.1077 20.7999 24.1427 20.6401 24.164C20.5596 24.174 20.4949 24.1815 20.4498 24.1852C20.4047 24.189 20.3791 24.1902 20.3791 24.1877C20.3791 24.1852 20.4035 24.1802 20.4474 24.1727L20.6364 24.1414C20.7962 24.1152 21.0157 24.0751 21.2572 24.0251C21.4987 23.9738 21.7158 23.9212 21.8719 23.8812ZM21.7707 21.7428C21.667 21.7666 21.5682 21.7853 21.478 21.8004C21.3877 21.8154 21.306 21.8279 21.2365 21.8354C21.167 21.8442 21.1121 21.8492 21.0731 21.8517C21.034 21.8542 21.0133 21.8542 21.0121 21.8517C21.0121 21.8467 21.0962 21.8354 21.2328 21.8129C21.3011 21.8016 21.3829 21.7879 21.4719 21.7716C21.5621 21.7541 21.6597 21.734 21.7634 21.7115C21.8658 21.6878 21.9634 21.664 22.0524 21.6402C22.1415 21.6164 22.2208 21.5939 22.2866 21.5751C22.4196 21.5364 22.5013 21.5101 22.5037 21.5151C22.5037 21.5176 22.4842 21.5263 22.4488 21.5401C22.4122 21.5551 22.3598 21.5739 22.2939 21.5964C22.2281 21.6189 22.1488 21.644 22.061 21.669C21.9719 21.694 21.8744 21.719 21.7707 21.7428ZM23.3185 22.7188L23.2989 22.7425C23.2916 22.7513 23.2831 22.7601 23.2733 22.7701C23.255 22.7888 23.2343 22.8114 23.2099 22.8339L23.1721 22.8702C23.1587 22.8827 23.144 22.8952 23.1294 22.9077C23.1001 22.934 23.0672 22.959 23.0331 22.9865C22.9623 23.0391 22.883 23.0929 22.794 23.1429C22.705 23.1917 22.6184 23.2318 22.5367 23.2643C22.4952 23.2793 22.4574 23.2943 22.4196 23.3056C22.4013 23.3119 22.383 23.3169 22.3659 23.3219L22.3159 23.3356C22.2842 23.3444 22.2549 23.3494 22.2293 23.3557C22.2159 23.3582 22.2049 23.3607 22.1939 23.3632L22.1634 23.3682C22.1268 23.3732 22.1073 23.3757 22.1061 23.3732C22.1061 23.3707 22.1256 23.3657 22.161 23.3557L22.1903 23.3481L22.2256 23.3381C22.25 23.3306 22.2793 23.3244 22.3098 23.3144L22.3586 23.2994C22.3757 23.2943 22.3927 23.2868 22.411 23.2818C22.4476 23.2693 22.4854 23.2543 22.5257 23.238C22.605 23.2043 22.6916 23.1642 22.7781 23.1154C22.8647 23.0666 22.944 23.0141 23.0148 22.9628C23.0489 22.9365 23.0831 22.9127 23.1123 22.8877C23.127 22.8752 23.1416 22.8639 23.155 22.8527L23.1941 22.8189C23.2197 22.7976 23.2404 22.7763 23.2599 22.7588C23.2697 22.7501 23.2782 22.7413 23.2867 22.7338C23.2953 22.7263 23.3026 22.7188 23.3087 22.7125C23.3355 22.6862 23.3502 22.6725 23.3526 22.675C23.3538 22.6762 23.3416 22.6925 23.3185 22.7213V22.7188Z" fill="white"/>
<path d="M18.0766 16.9982C18.1449 16.9594 18.212 16.9231 18.2754 16.8893C18.2925 16.8768 18.3096 16.8656 18.3266 16.8531C18.3681 16.8243 18.4144 16.7968 18.4632 16.768C18.5608 16.7117 18.673 16.6566 18.7938 16.6078C18.9145 16.559 19.0328 16.5227 19.1426 16.4952C19.1499 16.494 19.1572 16.4915 19.1658 16.4902C19.167 16.4839 19.1706 16.4777 19.1767 16.4714L19.1487 16.4777C19.1097 16.4852 19.0718 16.4977 19.0328 16.5065L18.9755 16.5215C18.956 16.5265 18.9377 16.5327 18.9194 16.539C18.7694 16.584 18.6267 16.6429 18.4901 16.7079C18.4559 16.7242 18.423 16.7417 18.3888 16.758C18.3559 16.7767 18.3242 16.7943 18.2913 16.813C18.2583 16.8305 18.2278 16.8506 18.1973 16.8706L18.151 16.8994L18.1278 16.9144L18.1059 16.9306C18.0766 16.9519 18.0473 16.9719 18.0181 16.9932C18.0132 16.997 18.0083 17.0007 18.0034 17.0045C18.0376 16.9907 18.0607 16.9882 18.0729 16.9995L18.0766 16.9982Z" fill="white"/>
<path d="M21.4782 16.1565L21.566 16.1877C21.5953 16.1978 21.6246 16.209 21.6551 16.2203C21.6844 16.2315 21.7148 16.2428 21.7441 16.2553C21.8624 16.3029 21.982 16.3567 22.1003 16.4155C22.2186 16.4743 22.3381 16.5381 22.4564 16.6069C22.482 16.6219 22.5064 16.6369 22.532 16.652C22.1161 16.3729 21.6478 16.1702 21.144 16.0626C21.2258 16.0826 21.3075 16.1039 21.3904 16.1302L21.4782 16.1577V16.1565Z" fill="white"/>
<path d="M23.8667 20.122C23.8744 20.1118 23.8833 20.1015 23.8922 20.09L23.8999 20.0785C23.8884 20.0926 23.8782 20.1079 23.8667 20.122Z" fill="white"/>
<path d="M23.9064 18.2229C23.9332 18.2755 23.96 18.3255 23.9881 18.3793C24.0149 18.4331 24.0405 18.4907 24.0613 18.552C24.0673 18.5695 24.071 18.5883 24.0759 18.6058C24.0808 18.6096 24.0856 18.6146 24.0905 18.6183C23.9954 18.3706 23.8783 18.1341 23.7417 17.9114C23.7685 17.9614 23.7966 18.014 23.8222 18.0628C23.8502 18.1166 23.8783 18.1691 23.9051 18.2204L23.9064 18.2229Z" fill="white"/>
<path d="M19.3399 16.1164C19.3863 16.1088 19.4326 16.1026 19.4789 16.0963L19.5131 16.0851C19.529 16.0801 19.546 16.0751 19.5631 16.0701C19.5802 16.065 19.5973 16.0588 19.6156 16.055C19.6509 16.0463 19.6875 16.0375 19.7265 16.0275C19.7656 16.02 19.8046 16.0125 19.8461 16.0037C19.8619 16.0012 19.8802 15.9987 19.8973 15.9962C19.6326 16.025 19.3765 16.0788 19.1289 16.1577C19.1557 16.1514 19.1838 16.1451 19.2106 16.1389C19.2533 16.1314 19.2972 16.1239 19.3411 16.1151L19.3399 16.1164Z" fill="white"/>
<path d="M17.7112 18.1893C17.7234 18.183 17.7331 18.1768 17.7453 18.1705C17.8404 18.118 17.9429 18.0642 18.0515 18.0078C18.0856 17.9903 18.121 17.9728 18.1551 17.9553C18.16 17.9515 18.1649 17.949 18.1698 17.9453C18.1588 17.9253 18.1502 17.909 18.149 17.8965C17.9819 17.9641 17.827 18.0241 17.6904 18.0742C17.6953 18.1004 17.7014 18.128 17.7051 18.153C17.7075 18.1655 17.7087 18.1768 17.7112 18.1893Z" fill="white"/>
<path d="M17.9761 18.859C18.0053 18.8853 18.0322 18.9103 18.0578 18.9341L18.0761 18.9516L18.0919 18.9678C18.1017 18.9778 18.1102 18.9866 18.1188 18.9954C18.1346 19.0104 18.148 19.0229 18.1602 19.0342C18.2017 19.0079 18.2493 18.9791 18.3017 18.9478C18.2505 18.9015 18.2041 18.8577 18.1639 18.8177C18.1468 18.8002 18.1322 18.7852 18.1175 18.7701C18.0785 18.8077 18.0553 18.8302 18.0419 18.8239C18.0322 18.8189 18.0309 18.7977 18.0395 18.7601C18.0431 18.7451 18.0505 18.7263 18.059 18.7051C18.0566 18.7026 18.0529 18.6988 18.0505 18.6951C18.02 18.7038 17.9895 18.7138 17.9614 18.7238C17.9663 18.7451 17.9712 18.7651 17.9724 18.7877C17.9736 18.8089 17.9724 18.8315 17.97 18.8552L17.9761 18.8602V18.859Z" fill="white"/>
<path d="M17.0483 20.1172C17.0263 20.1047 17.0032 20.0897 16.98 20.0759L17.0019 20.0997C17.0166 20.1147 17.0324 20.1297 17.0495 20.1472C17.0837 20.181 17.1215 20.2211 17.1666 20.2611C17.1861 20.2799 17.2068 20.2986 17.2288 20.3187C17.1641 20.2461 17.1154 20.1823 17.0788 20.1335C17.069 20.1285 17.0593 20.1222 17.0495 20.1172H17.0483Z" fill="white"/>
<path d="M17.1828 20.1894C17.1584 20.1769 17.1352 20.1644 17.1108 20.1519C17.1486 20.1969 17.195 20.252 17.2523 20.3133C17.2999 20.3646 17.356 20.4196 17.4182 20.4772C17.428 20.4834 17.4377 20.4909 17.4487 20.4972C17.5011 20.5285 17.5548 20.5623 17.6097 20.5935C17.7939 20.6974 17.9975 20.7912 18.2171 20.8713C18.2085 20.8638 18.1988 20.8576 18.1915 20.8513L18.1634 20.8275C18.1488 20.815 18.1415 20.8075 18.1415 20.8063C18.1415 20.8063 18.1512 20.8113 18.1671 20.8225L18.1963 20.8438C18.2073 20.8526 18.2207 20.8613 18.2366 20.8713C18.2427 20.8763 18.2512 20.8813 18.2585 20.8863C18.2903 20.8976 18.3207 20.9101 18.3537 20.9201C18.583 20.9964 18.8293 21.0565 19.0843 21.1053C19.094 21.1015 19.1025 21.099 19.1111 21.0965C19.1001 21.094 19.0904 21.0928 19.0794 21.0903C19.0464 21.084 19.0135 21.0778 18.9806 21.0703L18.8806 21.049C18.8476 21.0402 18.8147 21.0327 18.7806 21.024L18.7306 21.0115L18.6805 20.9977C18.6476 20.9877 18.6135 20.9789 18.5805 20.9689C18.5147 20.9464 18.4476 20.9264 18.3805 20.9013C18.2476 20.8538 18.1158 20.7962 17.9866 20.7312C17.8573 20.6661 17.7304 20.5935 17.6072 20.5122C17.4841 20.4321 17.3633 20.342 17.2487 20.2469C17.2267 20.2282 17.2048 20.2094 17.1828 20.1906V20.1894Z" fill="white"/>
<path d="M17.8569 18.4588C17.9047 18.455 17.9573 18.4512 18.0137 18.4474C17.9977 18.4309 17.9818 18.4144 17.9671 18.3992C17.9292 18.4207 17.8924 18.441 17.8582 18.4588H17.8569Z" fill="white"/>
<path d="M18.3687 18.1902C18.315 18.214 18.2626 18.2365 18.2114 18.259C18.187 18.2728 18.1638 18.2865 18.1406 18.3003C18.1699 18.3178 18.1992 18.3366 18.2309 18.3579C18.2943 18.3253 18.3614 18.2928 18.4321 18.259C18.409 18.2352 18.3882 18.2127 18.3675 18.1914L18.3687 18.1902Z" fill="white"/>
</svg>
