<svg width="40" height="40" viewBox="0 0 40 40" fill="none" xmlns="http://www.w3.org/2000/svg">
<rect x="3" y="3" width="34" height="34" rx="3" fill="#5865f2"/>
<path d="M30.1998 20.6411C30.1998 21.4377 29.5391 22.0983 28.7423 22.0983C27.9456 22.0983 27.2848 21.4377 27.2848 20.6411V14.7737L12.2824 29.7726C11.9909 30.064 11.6217 30.2 11.2524 30.2C10.8832 30.2 10.514 30.064 10.2225 29.7726C9.65891 29.2091 9.65891 28.2766 10.2225 27.7131L25.2249 12.7143H19.3561C18.5593 12.7143 17.8986 12.0537 17.8986 11.2571C17.8986 10.4606 18.5593 9.79999 19.3561 9.79999H24.0492H28.7423C29.5391 9.79999 30.1998 10.4606 30.1998 11.2571V20.6411Z" fill="black"/>
</svg>
