<svg width="40" height="40" viewBox="0 0 40 40" fill="none" xmlns="http://www.w3.org/2000/svg">
<rect x="3" y="3" width="34" height="34" rx="3" fill="black"/>
<g clip-path="url(#clip0_0_446)">
<path d="M26.6594 12.7911C27.609 11.8076 28.5477 10.8361 29.5197 9.82957V18.707H21.0222C22.3063 17.3793 23.6067 16.0356 24.9588 14.6385C24.4867 14.2535 24.1143 13.9093 23.704 13.6231C19.3201 10.5652 13.2271 13.2964 12.3757 18.6943C11.6981 22.9907 14.4703 26.9357 18.6193 27.5789C21.9718 28.0985 25.2617 26.1244 26.5396 22.8178C26.6161 22.6201 26.7011 22.5468 26.9097 22.5508C27.6599 22.5643 28.4102 22.5564 29.2006 22.5564C28.7934 24.1694 28.0733 25.5657 27.0256 26.7795C25.5252 28.5185 23.6662 29.6247 21.4472 30.0351C16.8701 30.8823 12.4552 28.422 10.6025 24.022C8.80067 19.7455 10.1111 14.6783 13.744 11.8355C17.38 8.99036 22.9036 8.96725 26.6594 12.7911Z" fill="white"/>
</g>
<defs>
<clipPath id="clip0_0_446">
<rect width="19.72" height="20.4" fill="white" transform="translate(9.7998 9.80005)"/>
</clipPath>
</defs>
</svg>
