<svg width="40" height="40" viewBox="0 0 40 40" fill="none" xmlns="http://www.w3.org/2000/svg">
<rect x="3" y="3" width="34" height="34" rx="3" fill="#16D992"/>
<g clip-path="url(#clip0_0_492)">
<path d="M26.6594 12.791C27.609 11.8076 28.5477 10.8361 29.5197 9.82951V18.7069H21.0222C22.3063 17.3792 23.6067 16.0355 24.9588 14.6384C24.4867 14.2535 24.1143 13.9092 23.704 13.6231C19.3201 10.5651 13.2271 13.2963 12.3757 18.6942C11.6981 22.9906 14.4703 26.9356 18.6193 27.5788C21.9718 28.0984 25.2617 26.1243 26.5396 22.8177C26.6161 22.6201 26.7011 22.5467 26.9097 22.5507C27.6599 22.5643 28.4102 22.5563 29.2006 22.5563C28.7934 24.1694 28.0733 25.5657 27.0256 26.7794C25.5252 28.5184 23.6662 29.6246 21.4472 30.035C16.8701 30.8822 12.4552 28.422 10.6025 24.0219C8.80067 19.7454 10.1111 14.6783 13.744 11.8355C17.38 8.9903 22.9036 8.96719 26.6594 12.791Z" fill="black"/>
</g>
<defs>
<clipPath id="clip0_0_492">
<rect width="19.72" height="20.4" fill="white" transform="translate(9.7998 9.79999)"/>
</clipPath>
</defs>
</svg>
