<svg width="16" height="16" viewBox="0 0 16 16" fill="none" xmlns="http://www.w3.org/2000/svg">
<path d="M2.49552 0.901081C2.6078 0.901081 2.72008 0.901081 2.83235 0.901081C2.85107 0.919794 2.86978 0.945992 2.89223 0.949735C3.2141 1.00587 3.44988 1.193 3.67069 1.41381C5.07041 2.81728 6.47388 4.21701 7.8736 5.62047C7.91103 5.6579 7.92974 5.71778 7.97091 5.78889C8.05325 5.69532 8.08693 5.65041 8.1281 5.60924C9.54279 4.19455 10.9575 2.77986 12.3722 1.36142C12.5743 1.15932 12.8026 1.00587 13.087 0.949735C13.1132 0.945992 13.1357 0.916052 13.1581 0.897339H13.495C13.5324 0.916052 13.5698 0.938507 13.611 0.95722C13.7756 1.03581 13.9628 1.08072 14.0938 1.19674C14.3819 1.4475 14.6626 1.71322 14.9059 2.00888C15.3251 2.51413 15.2577 3.21774 14.7674 3.70801C13.3415 5.13768 11.9118 6.5636 10.4822 7.99327C10.4448 8.03069 10.4073 8.07186 10.3624 8.12051C10.4148 8.16917 10.4597 8.20659 10.5009 8.24402C11.9231 9.6662 13.3453 11.0884 14.7674 12.5106C15.3251 13.0682 15.3213 13.8205 14.7674 14.3781C14.6552 14.4904 14.5391 14.5989 14.4306 14.7149C14.1761 14.9994 13.8842 15.2239 13.495 15.2913H13.1581C12.8325 15.2202 12.5705 15.0593 12.3348 14.8197C10.9275 13.405 9.51285 11.9941 8.1019 10.5831C8.06822 10.5494 8.03453 10.5195 7.99711 10.4858C7.95594 10.527 7.91852 10.5607 7.88109 10.5944C6.50756 11.9679 5.13404 13.3377 3.768 14.7149C3.49853 14.9844 3.22158 15.2239 2.83235 15.295H2.49552C2.14372 15.2239 1.85928 15.048 1.6235 14.7786C1.55613 14.7 1.48128 14.6289 1.40643 14.5615C1.11825 14.3033 0.882469 14.0076 0.81136 13.6109V13.274C0.886211 12.8773 1.13322 12.5966 1.41017 12.3197C2.77621 10.9611 4.13851 9.59509 5.50081 8.23653C5.53824 8.19911 5.59437 8.17291 5.64303 8.13548C5.57566 8.06438 5.54198 8.02695 5.5083 7.99327C4.13851 6.62348 2.77247 5.2537 1.39895 3.88766C1.12574 3.61445 0.882469 3.3375 0.807617 2.94453V2.6077C0.871241 2.33075 0.976033 2.07625 1.18562 1.87415C1.38023 1.68328 1.56736 1.49241 1.76197 1.30154C1.93788 1.12564 2.14746 1.00962 2.39073 0.953477C2.42815 0.945992 2.45809 0.916052 2.49552 0.897339V0.901081Z" fill="white"/>
</svg>
