<svg width="35" height="34" viewBox="0 0 35 34" fill="none" xmlns="http://www.w3.org/2000/svg">
<rect width="35" height="34" rx="17" fill="white"/>
<path d="M12.524 10.2C10.6877 10.2 8.92655 10.9164 7.62806 12.1916C6.32958 13.4669 5.6001 15.1965 5.6001 17C5.6001 18.8034 6.32958 20.533 7.62806 21.8083C8.92655 23.0835 10.6877 23.8 12.524 23.8C14.3603 23.8 16.1215 23.0835 17.42 21.8083C18.7184 20.533 19.4479 18.8034 19.4479 17C19.4479 15.1965 18.7184 13.4669 17.42 12.1916C16.1215 10.9164 14.3603 10.2 12.524 10.2V10.2ZM23.4425 10.723C21.5304 10.723 19.9805 13.5335 19.9805 17C19.9805 17.6501 20.0349 18.2768 20.1361 18.8663C20.2708 19.6525 20.4886 20.3722 20.7709 20.9926C20.9121 21.3028 21.0692 21.5879 21.2402 21.8436C21.5821 22.3552 21.9794 22.7501 22.413 22.9949C22.7384 23.178 23.084 23.2769 23.4425 23.2769C23.8009 23.2769 24.1466 23.178 24.472 22.9949C24.9056 22.7501 25.3029 22.3552 25.6448 21.8436C25.8158 21.5879 25.9729 21.3028 26.1141 20.9926C26.3963 20.3728 26.6142 19.6525 26.7489 18.8663C26.8501 18.2768 26.9044 17.6501 26.9044 17C26.9044 13.5335 25.3546 10.723 23.4425 10.723ZM28.7686 11.2461C28.6306 11.2461 28.4975 11.3366 28.3728 11.505C28.2892 11.617 28.2093 11.7634 28.1342 11.9408C28.0964 12.0292 28.0597 12.1254 28.0245 12.229C27.9537 12.4356 27.8876 12.6715 27.8275 12.9315C27.7071 13.4519 27.6096 14.0723 27.542 14.7607C27.5084 15.1048 27.4823 15.4663 27.4642 15.8408C27.4461 16.2148 27.4371 16.6029 27.4371 17C27.4371 17.397 27.4461 17.7851 27.4642 18.1596C27.4818 18.5341 27.5079 18.8956 27.542 19.2398C27.6096 19.9281 27.7071 20.548 27.8275 21.069C27.8876 21.3295 27.9537 21.5648 28.0245 21.7715C28.0597 21.875 28.0964 21.9713 28.1342 22.0597C28.2099 22.237 28.2898 22.3835 28.3728 22.4954C28.4975 22.6633 28.6306 22.7538 28.7686 22.7538C29.5041 22.7538 30.1001 20.1776 30.1001 17C30.1001 13.8223 29.5041 11.2461 28.7686 11.2461Z" fill="#202225"/>
</svg>
